<?xml version="1.0" encoding="UTF-8" standalone="no"?><svg xmlns="http://www.w3.org/2000/svg" xmlns:xlink="http://www.w3.org/1999/xlink" height="725" version="1.1" width="581"><defs/><g><g transform="translate(-758,-134) scale(1,1)"><path d="M 1159 160.5 C 1159 155.2532944 1163.2532944 151 1168.5 151 C 1173.7467056 151 1178 155.2532944 1178 160.5 C 1178 165.7467056 1173.7467056 170 1168.5 170 C 1163.2532944 170 1159 165.7467056 1159 160.5 Z" fill="#C0C0C0" opacity="0.2" stroke="none"/></g><g transform="translate(-758,-134) scale(1,1)"><path d="M 1152 153.5 C 1152 148.2532944 1156.2532944 144 1161.5 144 C 1166.7467056 144 1171 148.2532944 1171 153.5 C 1171 158.7467056 1166.7467056 163 1161.5 163 C 1156.2532944 163 1152 158.7467056 1152 153.5 Z" fill="#000000" stroke="none"/></g><g transform="translate(-758,-134) scale(1,1)"><path d="M 1113 215 L 1221 215 Q 1231 215 1231 225 L 1231 258 Q 1231 268 1221 268 L 1113 268 Q 1103 268 1103 258 L 1103 225 Q 1103 215 1113 215 Z" fill="#C0C0C0" opacity="0.2" stroke="none"/></g><g transform="translate(-758,-134) scale(1,1)"><path d="M 1106 208 L 1214 208 Q 1224 208 1224 218 L 1224 251 Q 1224 261 1214 261 L 1106 261 Q 1096 261 1096 251 L 1096 218 Q 1096 208 1106 208 Z" fill="#ffff91" stroke="none"/></g><g transform="translate(-758,-134) scale(1,1)"><path d="M 1106 208 L 1214 208 Q 1224 208 1224 218 L 1224 251 Q 1224 261 1214 261 L 1106 261 Q 1096 261 1096 251 L 1096 218 Q 1096 208 1106 208 Z" fill="none" stroke="#000000" stroke-miterlimit="10"/></g><g transform="translate(-758,-134) scale(1,1)"><g><path fill="none" stroke="none"/><text fill="#000000" font-family="Arial" font-size="13px" font-style="normal" font-weight="bold" stroke="none" text-decoration="none" x="1112.31640625" y="226">Creazione della</text><text fill="#000000" font-family="Arial" font-size="13px" font-style="normal" font-weight="bold" stroke="none" text-decoration="none" x="1106.54638671875" y="239">soluzione iniziale</text></g></g><g transform="translate(-758,-134) scale(1,1)"><path d="M 1311 339.5 C 1311 332.59644 1316.59644 327 1323.5 327 C 1330.40356 327 1336 332.59644 1336 339.5 C 1336 346.40356 1330.40356 352 1323.5 352 C 1316.59644 352 1311 346.40356 1311 339.5 Z" fill="#C0C0C0" opacity="0.2" stroke="none"/></g><g transform="translate(-758,-134) scale(1,1)"><path d="M 1304 332.5 C 1304 325.59644 1309.59644 320 1316.5 320 C 1323.40356 320 1329 325.59644 1329 332.5 C 1329 339.40356 1323.40356 345 1316.5 345 C 1309.59644 345 1304 339.40356 1304 332.5 Z" fill="none" stroke="#000000" stroke-miterlimit="10"/></g><g transform="translate(-758,-134) scale(1,1)"><path d="M 1309 332.5 C 1309 328.357864 1312.357864 325 1316.5 325 C 1320.642136 325 1324 328.357864 1324 332.5 C 1324 336.642136 1320.642136 340 1316.5 340 C 1312.357864 340 1309 336.642136 1309 332.5 Z" fill="#000000" stroke="none"/></g><g transform="translate(-758,-134) scale(1,1)"><path d="M 1129 415 L 1205 415 Q 1215 415 1215 425 L 1215 458 Q 1215 468 1205 468 L 1129 468 Q 1119 468 1119 458 L 1119 425 Q 1119 415 1129 415 Z" fill="#C0C0C0" opacity="0.2" stroke="none"/></g><g transform="translate(-758,-134) scale(1,1)"><path d="M 1122 408 L 1198 408 Q 1208 408 1208 418 L 1208 451 Q 1208 461 1198 461 L 1122 461 Q 1112 461 1112 451 L 1112 418 Q 1112 408 1122 408 Z" fill="#ffc082" stroke="none"/></g><g transform="translate(-758,-134) scale(1,1)"><path d="M 1122 408 L 1198 408 Q 1208 408 1208 418 L 1208 451 Q 1208 461 1198 461 L 1122 461 Q 1112 461 1112 451 L 1112 418 Q 1112 408 1122 408 Z" fill="none" stroke="#000000" stroke-miterlimit="10"/></g><g transform="translate(-758,-134) scale(1,1)"><g><path fill="none" stroke="none"/><text fill="#000000" font-family="Arial" font-size="13px" font-style="normal" font-weight="bold" stroke="none" text-decoration="none" x="1117.7373046875" y="426">Creazione del</text><text fill="#000000" font-family="Arial" font-size="13px" font-style="normal" font-weight="bold" stroke="none" text-decoration="none" x="1135.437744140625" y="439">vicinato</text></g></g><g transform="translate(-758,-134) scale(1,1)"><path d="M 1089 519 L 1237 519 Q 1247 519 1247 529 L 1247 562 Q 1247 572 1237 572 L 1089 572 Q 1079 572 1079 562 L 1079 529 Q 1079 519 1089 519 Z" fill="#C0C0C0" opacity="0.2" stroke="none"/></g><g transform="translate(-758,-134) scale(1,1)"><path d="M 1082 512 L 1230 512 Q 1240 512 1240 522 L 1240 555 Q 1240 565 1230 565 L 1082 565 Q 1072 565 1072 555 L 1072 522 Q 1072 512 1082 512 Z" fill="#ffc082" stroke="none"/></g><g transform="translate(-758,-134) scale(1,1)"><path d="M 1082 512 L 1230 512 Q 1240 512 1240 522 L 1240 555 Q 1240 565 1230 565 L 1082 565 Q 1072 565 1072 555 L 1072 522 Q 1072 512 1082 512 Z" fill="none" stroke="#000000" stroke-miterlimit="10"/></g><g transform="translate(-758,-134) scale(1,1)"><g><path fill="none" stroke="none"/><text fill="#000000" font-family="Arial" font-size="13px" font-style="normal" font-weight="bold" stroke="none" text-decoration="none" x="1084.12548828125" y="530">Scelta di una soluzione</text><text fill="#000000" font-family="Arial" font-size="13px" font-style="normal" font-weight="bold" stroke="none" text-decoration="none" x="1089.175048828125" y="543">appartente al vicinato</text></g></g><g transform="translate(-758,-134) scale(1,1)"><path d="M 1105 767 L 1229 767 Q 1239 767 1239 777 L 1239 810 Q 1239 820 1229 820 L 1105 820 Q 1095 820 1095 810 L 1095 777 Q 1095 767 1105 767 Z" fill="#C0C0C0" opacity="0.2" stroke="none"/></g><g transform="translate(-758,-134) scale(1,1)"><path d="M 1098 760 L 1222 760 Q 1232 760 1232 770 L 1232 803 Q 1232 813 1222 813 L 1098 813 Q 1088 813 1088 803 L 1088 770 Q 1088 760 1098 760 Z" fill="#a3ffa3" stroke="none"/></g><g transform="translate(-758,-134) scale(1,1)"><path d="M 1098 760 L 1222 760 Q 1232 760 1232 770 L 1232 803 Q 1232 813 1222 813 L 1098 813 Q 1088 813 1088 803 L 1088 770 Q 1088 760 1098 760 Z" fill="none" stroke="#000000" stroke-miterlimit="10"/></g><g transform="translate(-758,-134) scale(1,1)"><g><path fill="none" stroke="none"/><text fill="#000000" font-family="Arial" font-size="13px" font-style="normal" font-weight="bold" stroke="none" text-decoration="none" x="1099.325927734375" y="778">Mantenimento della</text><text fill="#000000" font-family="Arial" font-size="13px" font-style="normal" font-weight="bold" stroke="none" text-decoration="none" x="1102.2109375" y="791">soluzione corrente</text></g></g><g transform="translate(-758,-134) scale(1,1)"><path d="M 857 519 L 989 519 Q 999 519 999 529 L 999 562 Q 999 572 989 572 L 857 572 Q 847 572 847 562 L 847 529 Q 847 519 857 519 Z" fill="#C0C0C0" opacity="0.2" stroke="none"/></g><g transform="translate(-758,-134) scale(1,1)"><path d="M 850 512 L 982 512 Q 992 512 992 522 L 992 555 Q 992 565 982 565 L 850 565 Q 840 565 840 555 L 840 522 Q 840 512 850 512 Z" fill="#a3e0ff" stroke="none"/></g><g transform="translate(-758,-134) scale(1,1)"><path d="M 850 512 L 982 512 Q 992 512 992 522 L 992 555 Q 992 565 982 565 L 850 565 Q 840 565 840 555 L 840 522 Q 840 512 850 512 Z" fill="none" stroke="#000000" stroke-miterlimit="10"/></g><g transform="translate(-758,-134) scale(1,1)"><g><path fill="none" stroke="none"/><text fill="#000000" font-family="Arial" font-size="13px" font-style="normal" font-weight="bold" stroke="none" text-decoration="none" x="851.35546875" y="530">Aggiornamento della</text><text fill="#000000" font-family="Arial" font-size="13px" font-style="normal" font-weight="bold" stroke="none" text-decoration="none" x="858.2109375" y="543">soluzione corrente</text></g></g><g transform="translate(-758,-134) scale(1,1)"><path d="M 857 415 L 973 415 Q 983 415 983 425 L 983 458 Q 983 468 973 468 L 857 468 Q 847 468 847 458 L 847 425 Q 847 415 857 415 Z" fill="#C0C0C0" opacity="0.2" stroke="none"/></g><g transform="translate(-758,-134) scale(1,1)"><path d="M 850 408 L 966 408 Q 976 408 976 418 L 976 451 Q 976 461 966 461 L 850 461 Q 840 461 840 451 L 840 418 Q 840 408 850 408 Z" fill="#a3e0ff" stroke="none"/></g><g transform="translate(-758,-134) scale(1,1)"><path d="M 850 408 L 966 408 Q 976 408 976 418 L 976 451 Q 976 461 966 461 L 850 461 Q 840 461 840 451 L 840 418 Q 840 408 850 408 Z" fill="none" stroke="#000000" stroke-miterlimit="10"/></g><g transform="translate(-758,-134) scale(1,1)"><g><path fill="none" stroke="none"/><text fill="#000000" font-family="Arial" font-size="13px" font-style="normal" font-weight="bold" stroke="none" text-decoration="none" x="859.9736328125" y="426">Aggiornamento</text><text fill="#000000" font-family="Arial" font-size="13px" font-style="normal" font-weight="bold" stroke="none" text-decoration="none" x="866.464111328125" y="439">della tabu list</text></g></g><g transform="translate(-758,-134) scale(1,1)"><path d="M 1162 163 L 1162 208" fill="none" stroke="#000000" stroke-miterlimit="10"/></g><g transform="translate(-758,-134) scale(1,1)"><path d="M 1157.7904822439841 197.83732514237585 L 1162 208 L 1166.2095177560159 197.83732514237585" fill="none" stroke="#000000" stroke-miterlimit="10"/></g><g transform="translate(-758,-134) scale(1,1)"><path d="M 1151 663.5 L 1167.5 647 L 1183 663.5 L 1167.5 679 L 1151 663.5" fill="#C0C0C0" opacity="0.2" stroke="none"/></g><g transform="translate(-758,-134) scale(1,1)"><path d="M 1144 656 L 1160 640 L 1176 656 L 1160 672 L 1144 656" fill="#ffffff" stroke="none"/></g><g transform="translate(-758,-134) scale(1,1)"><path d="M 1144 656 L 1160 640 L 1176 656 L 1160 672 L 1144 656 L 1144 656" fill="none" stroke="#000000" stroke-miterlimit="10"/></g><g transform="translate(-758,-134) scale(1,1)"><path d="M 903 663.5 L 918.5 647 L 933 663.5 L 918.5 679 L 903 663.5" fill="#C0C0C0" opacity="0.2" stroke="none"/></g><g transform="translate(-758,-134) scale(1,1)"><path d="M 896 656 L 911 640 L 926 656 L 911 672 L 896 656" fill="#ffffff" stroke="none"/></g><g transform="translate(-758,-134) scale(1,1)"><path d="M 896 656 L 911 640 L 926 656 L 911 672 L 896 656 L 896 656" fill="none" stroke="#000000" stroke-miterlimit="10"/></g><g transform="translate(-758,-134) scale(1,1)"><path d="M 1160 261 L 1160 320" fill="none" stroke="#000000" stroke-miterlimit="10"/></g><g transform="translate(-758,-134) scale(1,1)"><path d="M 1155.7904822439841 309.83732514237585 L 1160 320 L 1164.2095177560159 309.83732514237585" fill="none" stroke="#000000" stroke-miterlimit="10"/></g><g transform="translate(-758,-134) scale(1,1)"><path d="M 1161 461 L 1161 512" fill="none" stroke="#000000" stroke-miterlimit="10"/></g><g transform="translate(-758,-134) scale(1,1)"><path d="M 1156.7904822439841 501.83732514237585 L 1161 512 L 1165.2095177560159 501.83732514237585" fill="none" stroke="#000000" stroke-miterlimit="10"/></g><g transform="translate(-758,-134) scale(1,1)"><path d="M 1160 565 L 1160 640" fill="none" stroke="#000000" stroke-miterlimit="10"/></g><g transform="translate(-758,-134) scale(1,1)"><path d="M 1155.7904822439841 629.8373251423759 L 1160 640 L 1164.2095177560159 629.8373251423759" fill="none" stroke="#000000" stroke-miterlimit="10"/></g><g transform="translate(-758,-134) scale(1,1)"><path d="M 1144 656 L 926 656" fill="none" stroke="#000000" stroke-miterlimit="10"/></g><g transform="translate(-758,-134) scale(1,1)"><path d="M 936.1626748576241 651.790482243984 L 926 656 L 936.1626748576241 660.209517756016" fill="none" stroke="#000000" stroke-miterlimit="10"/></g><g transform="translate(-758,-134) scale(1,1)"><g><path fill="none" stroke="none"/><text fill="#000000" font-family="Arial" font-size="13px" font-style="normal" font-weight="normal" stroke="none" text-decoration="none" x="997.688720703125" y="633"> [Soluzione non</text><text fill="#000000" font-family="Arial" font-size="13px" font-style="normal" font-weight="normal" stroke="none" text-decoration="none" x="976.00830078125" y="646">appatiene alla tabu list]</text></g></g><g transform="translate(-758,-134) scale(1,1)"><path d="M 912 672 L 912 784 L 1088 784" fill="none" stroke="#000000" stroke-miterlimit="10"/></g><g transform="translate(-758,-134) scale(1,1)"><path d="M 1077.837325142376 788.209517756016 L 1088 784 L 1077.837325142376 779.790482243984" fill="none" stroke="#000000" stroke-miterlimit="10"/></g><g transform="translate(-758,-134) scale(1,1)"><g><path fill="none" stroke="none"/><text fill="#000000" font-family="Arial" font-size="13px" font-style="normal" font-weight="normal" stroke="none" text-decoration="none" x="807.188720703125" y="721"> [Soluzione non</text><text fill="#000000" font-family="Arial" font-size="13px" font-style="normal" font-weight="normal" stroke="none" text-decoration="none" x="818.40185546875" y="734">migliorante]</text></g></g><g transform="translate(-758,-134) scale(1,1)"><path d="M 1160 672 L 1160 760" fill="none" stroke="#000000" stroke-miterlimit="10"/></g><g transform="translate(-758,-134) scale(1,1)"><path d="M 1155.7904822439841 749.8373251423759 L 1160 760 L 1164.2095177560159 749.8373251423759" fill="none" stroke="#000000" stroke-miterlimit="10"/></g><g transform="translate(-758,-134) scale(1,1)"><g><path fill="none" stroke="none"/><text fill="#000000" font-family="Arial" font-size="13px" font-style="normal" font-weight="normal" stroke="none" text-decoration="none" x="1177.314208984375" y="713"> [Soluzione appartiene</text><text fill="#000000" font-family="Arial" font-size="13px" font-style="normal" font-weight="normal" stroke="none" text-decoration="none" x="1205.869140625" y="726">alla tabu list]</text></g></g><g transform="translate(-758,-134) scale(1,1)"><path d="M 912 640 L 912 565" fill="none" stroke="#000000" stroke-miterlimit="10"/></g><g transform="translate(-758,-134) scale(1,1)"><path d="M 916.209517756016 575.1626748576241 L 912 565 L 907.790482243984 575.1626748576241" fill="none" stroke="#000000" stroke-miterlimit="10"/></g><g transform="translate(-758,-134) scale(1,1)"><g><path fill="none" stroke="none"/><text fill="#000000" font-family="Arial" font-size="13px" font-style="normal" font-weight="normal" stroke="none" text-decoration="none" x="813.921875" y="609"> [Soluzione   </text><text fill="#000000" font-family="Arial" font-size="13px" font-style="normal" font-weight="normal" stroke="none" text-decoration="none" x="817.90185546875" y="622">migliorante]</text></g></g><g transform="translate(-758,-134) scale(1,1)"><path d="M 912 512 L 912 461" fill="none" stroke="#000000" stroke-miterlimit="10"/></g><g transform="translate(-758,-134) scale(1,1)"><path d="M 916.209517756016 471.16267485762415 L 912 461 L 907.790482243984 471.16267485762415" fill="none" stroke="#000000" stroke-miterlimit="10"/></g><g transform="translate(-758,-134) scale(1,1)"><path d="M 912 408 L 912 336 L 1144 336" fill="none" stroke="#000000" stroke-miterlimit="10"/></g><g transform="translate(-758,-134) scale(1,1)"><path d="M 1133.837325142376 340.209517756016 L 1144 336 L 1133.837325142376 331.790482243984" fill="none" stroke="#000000" stroke-miterlimit="10"/></g><g transform="translate(-758,-134) scale(1,1)"><path d="M 1160 813 L 1160 848 L 768 848 L 768 336 L 1144 336" fill="none" stroke="#000000" stroke-miterlimit="10"/></g><g transform="translate(-758,-134) scale(1,1)"><path d="M 1133.837325142376 340.209517756016 L 1144 336 L 1133.837325142376 331.790482243984" fill="none" stroke="#000000" stroke-miterlimit="10"/></g><g transform="translate(-758,-134) scale(1,1)"><path d="M 1151 343.5 L 1167.5 327 L 1183 343.5 L 1167.5 359 L 1151 343.5" fill="#C0C0C0" opacity="0.2" stroke="none"/></g><g transform="translate(-758,-134) scale(1,1)"><path d="M 1144 336 L 1160 320 L 1176 336 L 1160 352 L 1144 336" fill="#ffffff" stroke="none"/></g><g transform="translate(-758,-134) scale(1,1)"><path d="M 1144 336 L 1160 320 L 1176 336 L 1160 352 L 1144 336 L 1144 336" fill="none" stroke="#000000" stroke-miterlimit="10"/></g><g transform="translate(-758,-134) scale(1,1)"><path d="M 1160 352 L 1160 408" fill="none" stroke="#000000" stroke-miterlimit="10"/></g><g transform="translate(-758,-134) scale(1,1)"><path d="M 1155.7904822439841 397.83732514237585 L 1160 408 L 1164.2095177560159 397.83732514237585" fill="none" stroke="#000000" stroke-miterlimit="10"/></g><g transform="translate(-758,-134) scale(1,1)"><g><path fill="none" stroke="none"/><text fill="#000000" font-family="Arial" font-size="13px" font-style="normal" font-weight="normal" stroke="none" text-decoration="none" x="1015.985107421875" y="377"> [Nessuna condizione di</text><text fill="#000000" font-family="Arial" font-size="13px" font-style="normal" font-weight="normal" stroke="none" text-decoration="none" x="1035.148681640625" y="390">arresto verificata]</text></g></g><g transform="translate(-758,-134) scale(1,1)"><path d="M 1176 336 L 1304 336" fill="none" stroke="#000000" stroke-miterlimit="10"/></g><g transform="translate(-758,-134) scale(1,1)"><path d="M 1293.837325142376 340.209517756016 L 1304 336 L 1293.837325142376 331.790482243984" fill="none" stroke="#000000" stroke-miterlimit="10"/></g><g transform="translate(-758,-134) scale(1,1)"><g><path fill="none" stroke="none"/><text fill="#000000" font-family="Arial" font-size="13px" font-style="normal" font-weight="normal" stroke="none" text-decoration="none" x="1205.6982421875" y="299"> [Almeno una</text><text fill="#000000" font-family="Arial" font-size="13px" font-style="normal" font-weight="normal" stroke="none" text-decoration="none" x="1206.056884765625" y="312">condizione di</text><text fill="#000000" font-family="Arial" font-size="13px" font-style="normal" font-weight="normal" stroke="none" text-decoration="none" x="1194.148681640625" y="325">arresto verificata]</text></g></g></g></svg>