<?xml version="1.0" encoding="UTF-8" standalone="no"?><svg xmlns="http://www.w3.org/2000/svg" xmlns:xlink="http://www.w3.org/1999/xlink" height="797" version="1.1" width="494.69140625"><defs/><g><g transform="translate(-142,-94) scale(1,1)"><path d="M 385 191 L 445 191 Q 455 191 455 201 L 455 234 Q 455 244 445 244 L 385 244 Q 375 244 375 234 L 375 201 Q 375 191 385 191 Z" fill="#C0C0C0" opacity="0.2" stroke="none"/></g><g transform="translate(-142,-94) scale(1,1)"><path d="M 378 184 L 438 184 Q 448 184 448 194 L 448 227 Q 448 237 438 237 L 378 237 Q 368 237 368 227 L 368 194 Q 368 184 378 184 Z" fill="#ffff91" stroke="none"/></g><g transform="translate(-142,-94) scale(1,1)"><path d="M 378 184 L 438 184 Q 448 184 448 194 L 448 227 Q 448 237 438 237 L 378 237 Q 368 237 368 227 L 368 194 Q 368 184 378 184 Z" fill="none" stroke="#000000" stroke-miterlimit="10"/></g><g transform="translate(-142,-94) scale(1,1)"><g><path fill="none" stroke="none"/><text fill="#000000" font-family="Arial" font-size="13px" font-style="normal" font-weight="bold" stroke="none" text-decoration="none" x="380.911376953125" y="202">Apertura</text><text fill="#000000" font-family="Arial" font-size="13px" font-style="normal" font-weight="bold" stroke="none" text-decoration="none" x="393.555908203125" y="215">form</text></g></g><g transform="translate(-142,-94) scale(1,1)"><path d="M 407 120.5 C 407 115.2532944 411.2532944 111 416.5 111 C 421.7467056 111 426 115.2532944 426 120.5 C 426 125.7467056 421.7467056 130 416.5 130 C 411.2532944 130 407 125.7467056 407 120.5 Z" fill="#C0C0C0" opacity="0.2" stroke="none"/></g><g transform="translate(-142,-94) scale(1,1)"><path d="M 400 113.5 C 400 108.2532944 404.2532944 104 409.5 104 C 414.7467056 104 419 108.2532944 419 113.5 C 419 118.7467056 414.7467056 123 409.5 123 C 404.2532944 123 400 118.7467056 400 113.5 Z" fill="#000000" stroke="none"/></g><g transform="translate(-142,-94) scale(1,1)"><path d="M 409 123 L 409 184" fill="none" stroke="#000000" stroke-miterlimit="10"/></g><g transform="translate(-142,-94) scale(1,1)"><path d="M 404.790482243984 173.83732514237585 L 409 184 L 413.209517756016 173.83732514237585" fill="none" stroke="#000000" stroke-miterlimit="10"/></g><g transform="translate(-142,-94) scale(1,1)"><path d="M 399 535.5 L 415.5 519 L 431 535.5 L 415.5 551 L 399 535.5" fill="#C0C0C0" opacity="0.2" stroke="none"/></g><g transform="translate(-142,-94) scale(1,1)"><path d="M 392 528 L 408 512 L 424 528 L 408 544 L 392 528" fill="#ffffff" stroke="none"/></g><g transform="translate(-142,-94) scale(1,1)"><path d="M 392 528 L 408 512 L 424 528 L 408 544 L 392 528 L 392 528" fill="none" stroke="#000000" stroke-miterlimit="10"/></g><g transform="translate(-142,-94) scale(1,1)"><path d="M 407 237 L 407 280" fill="none" stroke="#000000" stroke-miterlimit="10"/></g><g transform="translate(-142,-94) scale(1,1)"><path d="M 402.790482243984 269.83732514237585 L 407 280 L 411.209517756016 269.83732514237585" fill="none" stroke="#000000" stroke-miterlimit="10"/></g><g transform="translate(-142,-94) scale(1,1)"><path d="M 408 333 L 408 392" fill="none" stroke="#000000" stroke-miterlimit="10"/></g><g transform="translate(-142,-94) scale(1,1)"><path d="M 403.790482243984 381.83732514237585 L 408 392 L 412.209517756016 381.83732514237585" fill="none" stroke="#000000" stroke-miterlimit="10"/></g><g transform="translate(-142,-94) scale(1,1)"><path d="M 505 615 L 613 615 Q 623 615 623 625 L 623 658 Q 623 668 613 668 L 505 668 Q 495 668 495 658 L 495 625 Q 495 615 505 615 Z" fill="#C0C0C0" opacity="0.2" stroke="none"/></g><g transform="translate(-142,-94) scale(1,1)"><path d="M 498 608 L 606 608 Q 616 608 616 618 L 616 651 Q 616 661 606 661 L 498 661 Q 488 661 488 651 L 488 618 Q 488 608 498 608 Z" fill="#a3ffa3" stroke="none"/></g><g transform="translate(-142,-94) scale(1,1)"><path d="M 498 608 L 606 608 Q 616 608 616 618 L 616 651 Q 616 661 606 661 L 498 661 Q 488 661 488 651 L 488 618 Q 488 608 498 608 Z" fill="none" stroke="#000000" stroke-miterlimit="10"/></g><g transform="translate(-142,-94) scale(1,1)"><g><path fill="none" stroke="none"/><text fill="#000000" font-family="Arial" font-size="13px" font-style="normal" font-weight="bold" stroke="none" text-decoration="none" x="506.496826171875" y="626">Ottimizzazione</text><text fill="#000000" font-family="Arial" font-size="13px" font-style="normal" font-weight="bold" stroke="none" text-decoration="none" x="516.9736328125" y="639">degli ordini</text></g></g><g transform="translate(-142,-94) scale(1,1)"><path d="M 209 615 L 333 615 Q 343 615 343 625 L 343 658 Q 343 668 333 668 L 209 668 Q 199 668 199 658 L 199 625 Q 199 615 209 615 Z" fill="#C0C0C0" opacity="0.2" stroke="none"/></g><g transform="translate(-142,-94) scale(1,1)"><path d="M 202 608 L 326 608 Q 336 608 336 618 L 336 651 Q 336 661 326 661 L 202 661 Q 192 661 192 651 L 192 618 Q 192 608 202 608 Z" fill="#ffadad" stroke="none"/></g><g transform="translate(-142,-94) scale(1,1)"><path d="M 202 608 L 326 608 Q 336 608 336 618 L 336 651 Q 336 661 326 661 L 202 661 Q 192 661 192 651 L 192 618 Q 192 608 202 608 Z" fill="none" stroke="#000000" stroke-miterlimit="10"/></g><g transform="translate(-142,-94) scale(1,1)"><g><path fill="none" stroke="none"/><text fill="#000000" font-family="Arial" font-size="13px" font-style="normal" font-weight="bold" stroke="none" text-decoration="none" x="201.865966796875" y="626">Segnalazione errore</text><text fill="#000000" font-family="Arial" font-size="13px" font-style="normal" font-weight="bold" stroke="none" text-decoration="none" x="201.88818359375" y="639">di inserimento input</text></g></g><g transform="translate(-142,-94) scale(1,1)"><path d="M 392 528 L 264 528 L 264 608" fill="none" stroke="#000000" stroke-miterlimit="10"/></g><g transform="translate(-142,-94) scale(1,1)"><path d="M 259.790482243984 597.8373251423759 L 264 608 L 268.209517756016 597.8373251423759" fill="none" stroke="#000000" stroke-miterlimit="10"/></g><g transform="translate(-142,-94) scale(1,1)"><g><path fill="none" stroke="none"/><text fill="#000000" font-family="Arial" font-size="13px" font-style="normal" font-weight="normal" stroke="none" text-decoration="none" x="291.280517578125" y="506"> [Input non</text><text fill="#000000" font-family="Arial" font-size="13px" font-style="normal" font-weight="normal" stroke="none" text-decoration="none" x="303.2109375" y="519">valido]</text></g></g><g transform="translate(-142,-94) scale(1,1)"><path d="M 424 528 L 552 528 L 552 608" fill="none" stroke="#000000" stroke-miterlimit="10"/></g><g transform="translate(-142,-94) scale(1,1)"><path d="M 547.790482243984 597.8373251423759 L 552 608 L 556.209517756016 597.8373251423759" fill="none" stroke="#000000" stroke-miterlimit="10"/></g><g transform="translate(-142,-94) scale(1,1)"><g><path fill="none" stroke="none"/><text fill="#000000" font-family="Arial" font-size="13px" font-style="normal" font-weight="normal" stroke="none" text-decoration="none" x="479.5" y="514"> [Input valido]</text></g></g><g transform="translate(-142,-94) scale(1,1)"><path d="M 192 632 L 152 632 L 152 304 L 344 304" fill="none" stroke="#000000" stroke-miterlimit="10"/></g><g transform="translate(-142,-94) scale(1,1)"><path d="M 333.83732514237585 308.209517756016 L 344 304 L 333.83732514237585 299.790482243984" fill="none" stroke="#000000" stroke-miterlimit="10"/></g><g transform="translate(-142,-94) scale(1,1)"><path d="M 385 399 L 444.8017578125 399 Q 454.8017578125 399 454.8017578125 409 L 454.8017578125 442 Q 454.8017578125 452 444.8017578125 452 L 385 452 Q 375 452 375 442 L 375 409 Q 375 399 385 399 Z" fill="#C0C0C0" opacity="0.2" stroke="none"/></g><g transform="translate(-142,-94) scale(1,1)"><path d="M 378 392 L 437.8017578125 392 Q 447.8017578125 392 447.8017578125 402 L 447.8017578125 435 Q 447.8017578125 445 437.8017578125 445 L 378 445 Q 368 445 368 435 L 368 402 Q 368 392 378 392 Z" fill="#ffff91" stroke="none"/></g><g transform="translate(-142,-94) scale(1,1)"><path d="M 378 392 L 437.8017578125 392 Q 447.8017578125 392 447.8017578125 402 L 447.8017578125 435 Q 447.8017578125 445 437.8017578125 445 L 378 445 Q 368 445 368 435 L 368 402 Q 368 392 378 392 Z" fill="none" stroke="#000000" stroke-miterlimit="10"/></g><g transform="translate(-142,-94) scale(1,1)"><g><path fill="none" stroke="none"/><text fill="#000000" font-family="Arial" font-size="13px" font-style="normal" font-weight="bold" stroke="none" text-decoration="none" x="372.5" y="410">Validazione</text><text fill="#000000" font-family="Arial" font-size="13px" font-style="normal" font-weight="bold" stroke="none" text-decoration="none" x="379.276123046875" y="423">dell'input</text></g></g><g transform="translate(-142,-94) scale(1,1)"><path d="M 407 445 L 407 512" fill="none" stroke="#000000" stroke-miterlimit="10"/></g><g transform="translate(-142,-94) scale(1,1)"><path d="M 402.790482243984 501.83732514237585 L 407 512 L 411.209517756016 501.83732514237585" fill="none" stroke="#000000" stroke-miterlimit="10"/></g><g transform="translate(-142,-94) scale(1,1)"><path d="M 489 711 L 623.69140625 711 Q 633.69140625 711 633.69140625 721 L 633.69140625 741 Q 633.69140625 751 623.69140625 751 L 489 751 Q 479 751 479 741 L 479 721 Q 479 711 489 711 Z" fill="#C0C0C0" opacity="0.2" stroke="none"/></g><g transform="translate(-142,-94) scale(1,1)"><path d="M 482 704 L 616.69140625 704 Q 626.69140625 704 626.69140625 714 L 626.69140625 734 Q 626.69140625 744 616.69140625 744 L 482 744 Q 472 744 472 734 L 472 714 Q 472 704 482 704 Z" fill="#a3ffa3" stroke="none"/></g><g transform="translate(-142,-94) scale(1,1)"><path d="M 482 704 L 616.69140625 704 Q 626.69140625 704 626.69140625 714 L 626.69140625 734 Q 626.69140625 744 616.69140625 744 L 482 744 Q 472 744 472 734 L 472 714 Q 472 704 482 704 Z" fill="none" stroke="#000000" stroke-miterlimit="10"/></g><g transform="translate(-142,-94) scale(1,1)"><g><path fill="none" stroke="none"/><text fill="#000000" font-family="Arial" font-size="13px" font-style="normal" font-weight="bold" stroke="none" text-decoration="none" x="476.5" y="722">Visualizzazione risultati</text></g></g><g transform="translate(-142,-94) scale(1,1)"><path d="M 361 287 L 469 287 Q 479 287 479 297 L 479 330 Q 479 340 469 340 L 361 340 Q 351 340 351 330 L 351 297 Q 351 287 361 287 Z" fill="#C0C0C0" opacity="0.2" stroke="none"/></g><g transform="translate(-142,-94) scale(1,1)"><path d="M 354 280 L 462 280 Q 472 280 472 290 L 472 323 Q 472 333 462 333 L 354 333 Q 344 333 344 323 L 344 290 Q 344 280 354 280 Z" fill="#ffff91" stroke="none"/></g><g transform="translate(-142,-94) scale(1,1)"><path d="M 354 280 L 462 280 Q 472 280 472 290 L 472 323 Q 472 333 462 333 L 354 333 Q 344 333 344 323 L 344 290 Q 344 280 354 280 Z" fill="none" stroke="#000000" stroke-miterlimit="10"/></g><g transform="translate(-142,-94) scale(1,1)"><g><path fill="none" stroke="none"/><text fill="#000000" font-family="Arial" font-size="13px" font-style="normal" font-weight="bold" stroke="none" text-decoration="none" x="350.207763671875" y="298">Modifica parametri</text><text fill="#000000" font-family="Arial" font-size="13px" font-style="normal" font-weight="bold" stroke="none" text-decoration="none" x="384.535888671875" y="311">di input</text></g></g><g transform="translate(-142,-94) scale(1,1)"><path d="M 543 875.5 C 543 868.59644 548.59644 863 555.5 863 C 562.40356 863 568 868.59644 568 875.5 C 568 882.40356 562.40356 888 555.5 888 C 548.59644 888 543 882.40356 543 875.5 Z" fill="#C0C0C0" opacity="0.2" stroke="none"/></g><g transform="translate(-142,-94) scale(1,1)"><path d="M 536 868.5 C 536 861.59644 541.59644 856 548.5 856 C 555.40356 856 561 861.59644 561 868.5 C 561 875.40356 555.40356 881 548.5 881 C 541.59644 881 536 875.40356 536 868.5 Z" fill="none" stroke="#000000" stroke-miterlimit="10"/></g><g transform="translate(-142,-94) scale(1,1)"><path d="M 541 868.5 C 541 864.357864 544.357864 861 548.5 861 C 552.642136 861 556 864.357864 556 868.5 C 556 872.642136 552.642136 876 548.5 876 C 544.357864 876 541 872.642136 541 868.5 Z" fill="#000000" stroke="none"/></g><g transform="translate(-142,-94) scale(1,1)"><path d="M 552 744 L 552 784" fill="none" stroke="#000000" stroke-miterlimit="10"/></g><g transform="translate(-142,-94) scale(1,1)"><path d="M 547.790482243984 773.8373251423759 L 552 784 L 556.209517756016 773.8373251423759" fill="none" stroke="#000000" stroke-miterlimit="10"/></g><g transform="translate(-142,-94) scale(1,1)"><path d="M 551 661 L 551 704" fill="none" stroke="#000000" stroke-miterlimit="10"/></g><g transform="translate(-142,-94) scale(1,1)"><path d="M 546.790482243984 693.8373251423759 L 551 704 L 555.209517756016 693.8373251423759" fill="none" stroke="#000000" stroke-miterlimit="10"/></g><g transform="translate(-142,-94) scale(1,1)"><path d="M 536 800 L 152 800 L 152 304 L 344 304" fill="none" stroke="#000000" stroke-miterlimit="10"/></g><g transform="translate(-142,-94) scale(1,1)"><path d="M 333.83732514237585 308.209517756016 L 344 304 L 333.83732514237585 299.790482243984" fill="none" stroke="#000000" stroke-miterlimit="10"/></g><g transform="translate(-142,-94) scale(1,1)"><g><path fill="none" stroke="none"/><text fill="#000000" font-family="Arial" font-size="13px" font-style="normal" font-weight="normal" stroke="none" text-decoration="none" x="473.9873046875" y="777"> [Nuova  </text><text fill="#000000" font-family="Arial" font-size="13px" font-style="normal" font-weight="normal" stroke="none" text-decoration="none" x="478.69091796875" y="790">ricerca]</text></g></g><g transform="translate(-142,-94) scale(1,1)"><path d="M 543 807.5 L 559.5 791 L 575 807.5 L 559.5 823 L 543 807.5" fill="#C0C0C0" opacity="0.2" stroke="none"/></g><g transform="translate(-142,-94) scale(1,1)"><path d="M 536 800 L 552 784 L 568 800 L 552 816 L 536 800" fill="#ffffff" stroke="none"/></g><g transform="translate(-142,-94) scale(1,1)"><path d="M 536 800 L 552 784 L 568 800 L 552 816 L 536 800 L 536 800" fill="none" stroke="#000000" stroke-miterlimit="10"/></g><g transform="translate(-142,-94) scale(1,1)"><path d="M 551 816 L 551 856" fill="none" stroke="#000000" stroke-miterlimit="10"/></g><g transform="translate(-142,-94) scale(1,1)"><path d="M 546.790482243984 845.8373251423759 L 551 856 L 555.209517756016 845.8373251423759" fill="none" stroke="#000000" stroke-miterlimit="10"/></g><g transform="translate(-142,-94) scale(1,1)"><g><path fill="none" stroke="none"/><text fill="#000000" font-family="Arial" font-size="13px" font-style="normal" font-weight="normal" stroke="none" text-decoration="none" x="567.75634765625" y="831"> [Ricerca</text><text fill="#000000" font-family="Arial" font-size="13px" font-style="normal" font-weight="normal" stroke="none" text-decoration="none" x="564.5" y="844">terminata]</text></g></g></g></svg>