<?xml version="1.0" encoding="UTF-8" standalone="no"?><svg xmlns="http://www.w3.org/2000/svg" xmlns:xlink="http://www.w3.org/1999/xlink" height="182" version="1.1" width="663.9423828125"><defs/><g><g transform="translate(-246,-1078) scale(1,1)"><rect fill="#C0C0C0" height="162" opacity="0.2" stroke="none" width="179.9423828125" x="727" y="1095"/></g><g transform="translate(-246,-1078) scale(1,1)"><rect fill="#ffa3ff" height="162" stroke="none" width="179.9423828125" x="720" y="1088"/></g><g transform="translate(-246,-1078) scale(1,1)"><path d="M 720 1088 L 899.9423828125 1088 L 899.9423828125 1250 L 720 1250 L 720 1088 Z Z" fill="none" stroke="#000000" stroke-miterlimit="10"/></g><g transform="translate(-246,-1078) scale(1,1)"><path d="M 720 1113 L 899.9423828125 1113" fill="none" stroke="#000000" stroke-miterlimit="10"/></g><g transform="translate(-246,-1078) scale(1,1)"><path d="M 720 1241 L 899.9423828125 1241" fill="none" stroke="#000000" stroke-miterlimit="10"/></g><g transform="translate(-246,-1078) scale(1,1)"><g><path fill="none" stroke="none"/><text fill="#000000" font-family="Arial" font-size="13px" font-style="normal" font-weight="bold" stroke="none" text-decoration="none" x="761.205322265625" y="1106">dataSourceItem</text></g></g><g transform="translate(-246,-1078) scale(1,1)"><g><path fill="none" stroke="none"/><text fill="#000000" font-family="Arial" font-size="13px" font-style="normal" font-weight="normal" stroke="none" text-decoration="none" x="725" y="1129">+cod_art: string</text></g></g><g transform="translate(-246,-1078) scale(1,1)"><g><path fill="none" stroke="none"/><text fill="#000000" font-family="Arial" font-size="13px" font-style="normal" font-weight="normal" stroke="none" text-decoration="none" x="725" y="1144">+cod_forn: int</text></g></g><g transform="translate(-246,-1078) scale(1,1)"><g><path fill="none" stroke="none"/><text fill="#000000" font-family="Arial" font-size="13px" font-style="normal" font-weight="normal" stroke="none" text-decoration="none" x="725" y="1159">+data_ord: DateTime</text></g></g><g transform="translate(-246,-1078) scale(1,1)"><g><path fill="none" stroke="none"/><text fill="#000000" font-family="Arial" font-size="13px" font-style="normal" font-weight="normal" stroke="none" text-decoration="none" x="725" y="1174">+data_prev_ini: DateTime</text></g></g><g transform="translate(-246,-1078) scale(1,1)"><g><path fill="none" stroke="none"/><text fill="#000000" font-family="Arial" font-size="13px" font-style="normal" font-weight="normal" stroke="none" text-decoration="none" x="725" y="1189">+data_prev_fin: DateTime</text></g></g><g transform="translate(-246,-1078) scale(1,1)"><g><path fill="none" stroke="none"/><text fill="#000000" font-family="Arial" font-size="13px" font-style="normal" font-weight="normal" stroke="none" text-decoration="none" x="725" y="1204">+qta_ordcli_prev: double</text></g></g><g transform="translate(-246,-1078) scale(1,1)"><g><path fill="none" stroke="none"/><text fill="#000000" font-family="Arial" font-size="13px" font-style="normal" font-weight="normal" stroke="none" text-decoration="none" x="725" y="1219">+qta_giacenza_prev: double</text></g></g><g transform="translate(-246,-1078) scale(1,1)"><g><path fill="none" stroke="none"/><text fill="#000000" font-family="Arial" font-size="13px" font-style="normal" font-weight="normal" stroke="none" text-decoration="none" x="725" y="1234">+price: double</text></g></g><g transform="translate(-246,-1078) scale(1,1)"><rect fill="#C0C0C0" height="85" opacity="0.2" stroke="none" width="306.31787109375" x="263" y="1135"/></g><g transform="translate(-246,-1078) scale(1,1)"><rect fill="#adadff" height="85" stroke="none" width="306.31787109375" x="256" y="1128"/></g><g transform="translate(-246,-1078) scale(1,1)"><path d="M 256 1128 L 562.31787109375 1128 L 562.31787109375 1213 L 256 1213 L 256 1128 Z Z" fill="none" stroke="#000000" stroke-miterlimit="10"/></g><g transform="translate(-246,-1078) scale(1,1)"><path d="M 256 1153 L 562.31787109375 1153" fill="none" stroke="#000000" stroke-miterlimit="10"/></g><g transform="translate(-246,-1078) scale(1,1)"><path d="M 256 1191 L 562.31787109375 1191" fill="none" stroke="#000000" stroke-miterlimit="10"/></g><g transform="translate(-246,-1078) scale(1,1)"><g><path fill="none" stroke="none"/><text fill="#000000" font-family="Arial" font-size="13px" font-style="normal" font-weight="bold" stroke="none" text-decoration="none" x="383.165283203125" y="1146">Solution</text></g></g><g transform="translate(-246,-1078) scale(1,1)"><g><path fill="none" stroke="none"/><text fill="#000000" font-family="Arial" font-size="13px" font-style="normal" font-weight="normal" stroke="none" text-decoration="none" x="261" y="1169">+solutionItems: List&lt;dataSourceItem&gt;</text></g></g><g transform="translate(-246,-1078) scale(1,1)"><g><path fill="none" stroke="none"/><text fill="#000000" font-family="Arial" font-size="13px" font-style="normal" font-weight="normal" stroke="none" text-decoration="none" x="261" y="1184">+costFunctionValue: double</text></g></g><g transform="translate(-246,-1078) scale(1,1)"><g><path fill="none" stroke="none"/><text fill="#000000" font-family="Arial" font-size="13px" font-style="normal" font-weight="normal" stroke="none" text-decoration="none" x="261" y="1207">+calculateObjectiveFunction(latb): void</text></g></g><g transform="translate(-246,-1078) scale(1,1)"><path d="M 562 1176 L 720 1176" fill="none" stroke="#000000" stroke-dasharray="3" stroke-miterlimit="10"/></g><g transform="translate(-246,-1078) scale(1,1)"><path d="M 709.8373251423759 1180.2095177560159 L 720 1176 L 709.8373251423758 1171.7904822439841" fill="none" stroke="#000000" stroke-miterlimit="10"/></g></g></svg>