<?xml version="1.0" encoding="UTF-8" standalone="no"?><svg xmlns="http://www.w3.org/2000/svg" xmlns:xlink="http://www.w3.org/1999/xlink" height="260" version="1.1" width="748"><defs/><g><g transform="translate(-54,-22) scale(1,1)"><rect fill="#C0C0C0" height="240" opacity="0.2" stroke="none" width="648" x="151" y="39"/></g><g transform="translate(-54,-22) scale(1,1)"><rect fill="#ffffff" height="240" stroke="none" width="648" x="144" y="32"/></g><g transform="translate(-54,-22) scale(1,1)"><path d="M 144 32 L 792 32 L 792 272 L 144 272 L 144 32 Z Z" fill="none" stroke="#000000" stroke-miterlimit="10"/></g><g transform="translate(-54,-22) scale(1,1)"><g><path fill="none" stroke="none"/><text fill="#000000" font-family="Arial" font-size="13px" font-style="normal" font-weight="bold" stroke="none" text-decoration="none" x="397.2109375" y="50">UC 1 - Inserimento dati</text></g></g><g transform="translate(-54,-22) scale(1,1)"><path d="M 80.40935031960227 129.68 C 80.40935031960227 124.886167936 84.29519264454773 121 89.088623046875 121 C 93.88205344920227 121 97.76789577414773 124.886167936 97.76789577414773 129.68 C 97.76789577414773 134.47383206400002 93.88205344920227 138.36 89.088623046875 138.36 C 84.29519264454773 138.36 80.40935031960227 134.47383206400002 80.40935031960227 129.68 Z" fill="#ffffff" stroke="none"/></g><g transform="translate(-54,-22) scale(1,1)"><path d="M 80.40935031960227 129.68 C 80.40935031960227 124.886167936 84.29519264454773 121 89.088623046875 121 C 93.88205344920227 121 97.76789577414773 124.886167936 97.76789577414773 129.68 C 97.76789577414773 134.47383206400002 93.88205344920227 138.36 89.088623046875 138.36 C 84.29519264454773 138.36 80.40935031960227 134.47383206400002 80.40935031960227 129.68 Z" fill="none" stroke="#000000" stroke-miterlimit="10"/></g><g transform="translate(-54,-22) scale(1,1)"><path d="M 89.088623046875 138.36 L 89.088623046875 155.64" fill="none" stroke="#000000" stroke-miterlimit="10"/></g><g transform="translate(-54,-22) scale(1,1)"><path d="M 79.89880486505682 144.84 L 98.27844122869318 144.84" fill="none" stroke="#000000" stroke-miterlimit="10"/></g><g transform="translate(-54,-22) scale(1,1)"><path d="M 89.088623046875 155.64 L 76.32498668323863 173" fill="none" stroke="#000000" stroke-miterlimit="10"/></g><g transform="translate(-54,-22) scale(1,1)"><path d="M 89.088623046875 155.64 L 101.85225941051137 173" fill="none" stroke="#000000" stroke-miterlimit="10"/></g><g transform="translate(-54,-22) scale(1,1)"><g><path fill="none" stroke="none"/><text fill="#000000" font-family="Arial" font-size="13px" font-style="normal" font-weight="bold" stroke="none" text-decoration="none" x="69.950439453125" y="192">Attore</text></g></g><g transform="translate(-54,-22) scale(1,1)"><path d="M 176 112 C 176 97.6405952 229.725824 86 296 86 C 362.274176 86 416 97.6405952 416 112 C 416 126.3594048 362.274176 138 296 138 C 229.725824 138 176 126.3594048 176 112 Z" fill="#C0C0C0" opacity="0.2" stroke="none"/></g><g transform="translate(-54,-22) scale(1,1)"><path d="M 169 105 C 169 90.6405952 222.725824 79 289 79 C 355.274176 79 409 90.6405952 409 105 C 409 119.3594048 355.274176 131 289 131 C 222.725824 131 169 119.3594048 169 105 Z" fill="#ffffff" stroke="none"/></g><g transform="translate(-54,-22) scale(1,1)"><path d="M 169 105 C 169 90.6405952 222.725824 79 289 79 C 355.274176 79 409 90.6405952 409 105 C 409 119.3594048 355.274176 131 289 131 C 222.725824 131 169 119.3594048 169 105 Z" fill="none" stroke="#000000" stroke-miterlimit="10"/></g><g transform="translate(-54,-22) scale(1,1)"><g><path fill="none" stroke="none"/><text fill="#000000" font-family="Arial" font-size="13px" font-style="normal" font-weight="bold" stroke="none" text-decoration="none" x="210.98095703125" y="104">UC 1.1 - Inserimento data</text><text fill="#000000" font-family="Arial" font-size="13px" font-style="normal" font-weight="bold" stroke="none" text-decoration="none" x="230.490478515625" y="117">di inizio previsione</text></g></g><g transform="translate(-54,-22) scale(1,1)"><path d="M 180 218 C 180 203.6405952 231.9349632 192 296 192 C 360.06503680000003 192 412 203.6405952 412 218 C 412 232.3594048 360.06503680000003 244 296 244 C 231.9349632 244 180 232.3594048 180 218 Z" fill="#C0C0C0" opacity="0.2" stroke="none"/></g><g transform="translate(-54,-22) scale(1,1)"><path d="M 173 211 C 173 196.6405952 224.9349632 185 289 185 C 353.06503680000003 185 405 196.6405952 405 211 C 405 225.3594048 353.06503680000003 237 289 237 C 224.9349632 237 173 225.3594048 173 211 Z" fill="#ffffff" stroke="none"/></g><g transform="translate(-54,-22) scale(1,1)"><path d="M 173 211 C 173 196.6405952 224.9349632 185 289 185 C 353.06503680000003 185 405 196.6405952 405 211 C 405 225.3594048 353.06503680000003 237 289 237 C 224.9349632 237 173 225.3594048 173 211 Z" fill="none" stroke="#000000" stroke-miterlimit="10"/></g><g transform="translate(-54,-22) scale(1,1)"><g><path fill="none" stroke="none"/><text fill="#000000" font-family="Arial" font-size="13px" font-style="normal" font-weight="bold" stroke="none" text-decoration="none" x="226.15185546875" y="210">UC 1.2 - Inserimento</text><text fill="#000000" font-family="Arial" font-size="13px" font-style="normal" font-weight="bold" stroke="none" text-decoration="none" x="220.372314453125" y="223">data di fine previsione</text></g></g><g transform="translate(-54,-22) scale(1,1)"><path d="M 495 114.5 C 495 94.8938896 555.8892672 79 631 79 C 706.1107328 79 767 94.8938896 767 114.5 C 767 134.1061104 706.1107328 150 631 150 C 555.8892672 150 495 134.1061104 495 114.5 Z" fill="#C0C0C0" opacity="0.2" stroke="none"/></g><g transform="translate(-54,-22) scale(1,1)"><path d="M 488 107.5 C 488 87.8938896 548.8892672 72 624 72 C 699.1107328 72 760 87.8938896 760 107.5 C 760 127.1061104 699.1107328 143 624 143 C 548.8892672 143 488 127.1061104 488 107.5 Z" fill="#ffffff" stroke="none"/></g><g transform="translate(-54,-22) scale(1,1)"><path d="M 488 107.5 C 488 87.8938896 548.8892672 72 624 72 C 699.1107328 72 760 87.8938896 760 107.5 C 760 127.1061104 699.1107328 143 624 143 C 548.8892672 143 488 127.1061104 488 107.5 Z" fill="none" stroke="#000000" stroke-miterlimit="10"/></g><g transform="translate(-54,-22) scale(1,1)"><g><path fill="none" stroke="none"/><text fill="#000000" font-family="Arial" font-size="13px" font-style="normal" font-weight="bold" stroke="none" text-decoration="none" x="535.15185546875" y="100">UC 1.3 - Errore: data di inizio</text><text fill="#000000" font-family="Arial" font-size="13px" font-style="normal" font-weight="bold" stroke="none" text-decoration="none" x="539.103271484375" y="113">previsione antecedente alla</text><text fill="#000000" font-family="Arial" font-size="13px" font-style="normal" font-weight="bold" stroke="none" text-decoration="none" x="585.352294921875" y="126">data odierna</text></g></g><g transform="translate(-54,-22) scale(1,1)"><path d="M 488 104 L 409 104" fill="none" stroke="#000000" stroke-dasharray="3" stroke-miterlimit="10"/></g><g transform="translate(-54,-22) scale(1,1)"><path d="M 419.16267485762415 99.79048224398402 L 409 104 L 419.16267485762415 108.20951775601598" fill="none" stroke="#000000" stroke-miterlimit="10"/></g><g transform="translate(-54,-22) scale(1,1)"><g><path fill="none" stroke="none"/><text fill="#000000" font-family="Arial" font-size="13px" font-style="normal" font-weight="normal" stroke="none" text-decoration="none" x="423.5" y="119">«extend»</text></g></g><g transform="translate(-54,-22) scale(1,1)"><path d="M 495 218.5 C 495 198.8938896 555.8892672 183 631 183 C 706.1107328 183 767 198.8938896 767 218.5 C 767 238.1061104 706.1107328 254 631 254 C 555.8892672 254 495 238.1061104 495 218.5 Z" fill="#C0C0C0" opacity="0.2" stroke="none"/></g><g transform="translate(-54,-22) scale(1,1)"><path d="M 488 211.5 C 488 191.8938896 548.8892672 176 624 176 C 699.1107328 176 760 191.8938896 760 211.5 C 760 231.1061104 699.1107328 247 624 247 C 548.8892672 247 488 231.1061104 488 211.5 Z" fill="#ffffff" stroke="none"/></g><g transform="translate(-54,-22) scale(1,1)"><path d="M 488 211.5 C 488 191.8938896 548.8892672 176 624 176 C 699.1107328 176 760 191.8938896 760 211.5 C 760 231.1061104 699.1107328 247 624 247 C 548.8892672 247 488 231.1061104 488 211.5 Z" fill="none" stroke="#000000" stroke-miterlimit="10"/></g><g transform="translate(-54,-22) scale(1,1)"><g><path fill="none" stroke="none"/><text fill="#000000" font-family="Arial" font-size="13px" font-style="normal" font-weight="bold" stroke="none" text-decoration="none" x="542.369140625" y="204">UC 1.4 - Errore data di fine</text><text fill="#000000" font-family="Arial" font-size="13px" font-style="normal" font-weight="bold" stroke="none" text-decoration="none" x="539.103271484375" y="217">previsione antecedente alla</text><text fill="#000000" font-family="Arial" font-size="13px" font-style="normal" font-weight="bold" stroke="none" text-decoration="none" x="550.319580078125" y="230">data di inizio previsione</text></g></g><g transform="translate(-54,-22) scale(1,1)"><path d="M 487 211 L 406 211" fill="none" stroke="#000000" stroke-dasharray="3" stroke-miterlimit="10"/></g><g transform="translate(-54,-22) scale(1,1)"><path d="M 416.16267485762415 206.790482243984 L 406 211 L 416.16267485762415 215.209517756016" fill="none" stroke="#000000" stroke-miterlimit="10"/></g><g transform="translate(-54,-22) scale(1,1)"><g><path fill="none" stroke="none"/><text fill="#000000" font-family="Arial" font-size="13px" font-style="normal" font-weight="normal" stroke="none" text-decoration="none" x="423.5" y="227">«extend»</text></g></g><g transform="translate(-54,-22) scale(1,1)"><path d="M 115 152 L 189 132" fill="none" stroke="#000000" stroke-miterlimit="10"/></g><g transform="translate(-54,-22) scale(1,1)"><path d="M 115 166 L 185 184" fill="none" stroke="#000000" stroke-miterlimit="10"/></g></g></svg>