<?xml version="1.0" encoding="UTF-8" standalone="no"?><svg xmlns="http://www.w3.org/2000/svg" xmlns:xlink="http://www.w3.org/1999/xlink" height="220" version="1.1" width="620"><defs/><g><g transform="translate(-86,-78) scale(1,1)"><rect fill="#C0C0C0" height="200" opacity="0.2" stroke="none" width="504" x="199" y="95"/></g><g transform="translate(-86,-78) scale(1,1)"><rect fill="#ffffff" height="200" stroke="none" width="504" x="192" y="88"/></g><g transform="translate(-86,-78) scale(1,1)"><path d="M 192 88 L 696 88 L 696 288 L 192 288 L 192 88 Z Z" fill="none" stroke="#000000" stroke-miterlimit="10"/></g><g transform="translate(-86,-78) scale(1,1)"><g><path fill="none" stroke="none"/><text fill="#000000" font-family="Arial" font-size="13px" font-style="normal" font-weight="bold" stroke="none" text-decoration="none" x="350.56884765625" y="106">UC 3 - Visualizzazione risultati</text></g></g><g transform="translate(-86,-78) scale(1,1)"><path d="M 112.40935031960228 161.68 C 112.40935031960228 156.886167936 116.29519264454774 153 121.088623046875 153 C 125.88205344920226 153 129.76789577414772 156.886167936 129.76789577414772 161.68 C 129.76789577414772 166.47383206400002 125.88205344920226 170.36 121.088623046875 170.36 C 116.29519264454774 170.36 112.40935031960228 166.47383206400002 112.40935031960228 161.68 Z" fill="#ffffff" stroke="none"/></g><g transform="translate(-86,-78) scale(1,1)"><path d="M 112.40935031960228 161.68 C 112.40935031960228 156.886167936 116.29519264454774 153 121.088623046875 153 C 125.88205344920226 153 129.76789577414772 156.886167936 129.76789577414772 161.68 C 129.76789577414772 166.47383206400002 125.88205344920226 170.36 121.088623046875 170.36 C 116.29519264454774 170.36 112.40935031960228 166.47383206400002 112.40935031960228 161.68 Z" fill="none" stroke="#000000" stroke-miterlimit="10"/></g><g transform="translate(-86,-78) scale(1,1)"><path d="M 121.088623046875 170.36 L 121.088623046875 187.64" fill="none" stroke="#000000" stroke-miterlimit="10"/></g><g transform="translate(-86,-78) scale(1,1)"><path d="M 111.89880486505683 176.84 L 130.27844122869317 176.84" fill="none" stroke="#000000" stroke-miterlimit="10"/></g><g transform="translate(-86,-78) scale(1,1)"><path d="M 121.088623046875 187.64 L 108.32498668323865 205" fill="none" stroke="#000000" stroke-miterlimit="10"/></g><g transform="translate(-86,-78) scale(1,1)"><path d="M 121.088623046875 187.64 L 133.85225941051135 205" fill="none" stroke="#000000" stroke-miterlimit="10"/></g><g transform="translate(-86,-78) scale(1,1)"><g><path fill="none" stroke="none"/><text fill="#000000" font-family="Arial" font-size="13px" font-style="normal" font-weight="bold" stroke="none" text-decoration="none" x="100.864990234375" y="224">Utente</text></g></g><g transform="translate(-86,-78) scale(1,1)"><path d="M 261 161 C 261 146.6405952 311.1441024 135 373 135 C 434.8558976 135 485 146.6405952 485 161 C 485 175.3594048 434.8558976 187 373 187 C 311.1441024 187 261 175.3594048 261 161 Z" fill="#C0C0C0" opacity="0.2" stroke="none"/></g><g transform="translate(-86,-78) scale(1,1)"><path d="M 254 154 C 254 139.6405952 304.1441024 128 366 128 C 427.8558976 128 478 139.6405952 478 154 C 478 168.3594048 427.8558976 180 366 180 C 304.1441024 180 254 168.3594048 254 154 Z" fill="#ffffff" stroke="none"/></g><g transform="translate(-86,-78) scale(1,1)"><path d="M 254 154 C 254 139.6405952 304.1441024 128 366 128 C 427.8558976 128 478 139.6405952 478 154 C 478 168.3594048 427.8558976 180 366 180 C 304.1441024 180 254 168.3594048 254 154 Z" fill="none" stroke="#000000" stroke-miterlimit="10"/></g><g transform="translate(-86,-78) scale(1,1)"><g><path fill="none" stroke="none"/><text fill="#000000" font-family="Arial" font-size="13px" font-style="normal" font-weight="bold" stroke="none" text-decoration="none" x="292.4306640625" y="153">UC 3.1 - Visualizzazione</text><text fill="#000000" font-family="Arial" font-size="13px" font-style="normal" font-weight="bold" stroke="none" text-decoration="none" x="299.200439453125" y="166">totale non ottimizzato</text></g></g><g transform="translate(-86,-78) scale(1,1)"><path d="M 463 201 C 463 186.6405952 513.1441024 175 575 175 C 636.8558976 175 687 186.6405952 687 201 C 687 215.3594048 636.8558976 227 575 227 C 513.1441024 227 463 215.3594048 463 201 Z" fill="#C0C0C0" opacity="0.2" stroke="none"/></g><g transform="translate(-86,-78) scale(1,1)"><path d="M 456 194 C 456 179.6405952 506.1441024 168 568 168 C 629.8558976 168 680 179.6405952 680 194 C 680 208.3594048 629.8558976 220 568 220 C 506.1441024 220 456 208.3594048 456 194 Z" fill="#ffffff" stroke="none"/></g><g transform="translate(-86,-78) scale(1,1)"><path d="M 456 194 C 456 179.6405952 506.1441024 168 568 168 C 629.8558976 168 680 179.6405952 680 194 C 680 208.3594048 629.8558976 220 568 220 C 506.1441024 220 456 208.3594048 456 194 Z" fill="none" stroke="#000000" stroke-miterlimit="10"/></g><g transform="translate(-86,-78) scale(1,1)"><g><path fill="none" stroke="none"/><text fill="#000000" font-family="Arial" font-size="13px" font-style="normal" font-weight="bold" stroke="none" text-decoration="none" x="494.4306640625" y="193">UC 3.2 - Visualizzazione</text><text fill="#000000" font-family="Arial" font-size="13px" font-style="normal" font-weight="bold" stroke="none" text-decoration="none" x="514.917724609375" y="206">totale ottimizzato</text></g></g><g transform="translate(-86,-78) scale(1,1)"><path d="M 213 249 C 213 234.6405952 284.634432 223 373 223 C 461.365568 223 533 234.6405952 533 249 C 533 263.3594048 461.365568 275 373 275 C 284.634432 275 213 263.3594048 213 249 Z" fill="#C0C0C0" opacity="0.2" stroke="none"/></g><g transform="translate(-86,-78) scale(1,1)"><path d="M 206 242 C 206 227.6405952 277.634432 216 366 216 C 454.365568 216 526 227.6405952 526 242 C 526 256.3594048 454.365568 268 366 268 C 277.634432 268 206 256.3594048 206 242 Z" fill="#ffffff" stroke="none"/></g><g transform="translate(-86,-78) scale(1,1)"><path d="M 206 242 C 206 227.6405952 277.634432 216 366 216 C 454.365568 216 526 227.6405952 526 242 C 526 256.3594048 454.365568 268 366 268 C 277.634432 268 206 256.3594048 206 242 Z" fill="none" stroke="#000000" stroke-miterlimit="10"/></g><g transform="translate(-86,-78) scale(1,1)"><g><path fill="none" stroke="none"/><text fill="#000000" font-family="Arial" font-size="13px" font-style="normal" font-weight="bold" stroke="none" text-decoration="none" x="292.4306640625" y="241">UC 3.3 - Visualizzazione</text><text fill="#000000" font-family="Arial" font-size="13px" font-style="normal" font-weight="bold" stroke="none" text-decoration="none" x="259.083251953125" y="254">scostamento percentuale dei totali</text></g></g><g transform="translate(-86,-78) scale(1,1)"><path d="M 147 187 L 253 171" fill="none" stroke="#000000" stroke-miterlimit="10"/></g><g transform="translate(-86,-78) scale(1,1)"><path d="M 147 191 L 455 193" fill="none" stroke="#000000" stroke-miterlimit="10"/></g><g transform="translate(-86,-78) scale(1,1)"><path d="M 147 196 L 236 215" fill="none" stroke="#000000" stroke-miterlimit="10"/></g></g></svg>