<?xml version="1.0" encoding="UTF-8" standalone="no"?><svg xmlns="http://www.w3.org/2000/svg" xmlns:xlink="http://www.w3.org/1999/xlink" height="340" version="1.1" width="932"><defs/><g><g transform="translate(-54,-6) scale(1,1)"><rect fill="#C0C0C0" height="320" opacity="0.2" stroke="none" width="808" x="175" y="23"/></g><g transform="translate(-54,-6) scale(1,1)"><rect fill="#ffffff" height="320" stroke="none" width="808" x="168" y="16"/></g><g transform="translate(-54,-6) scale(1,1)"><path d="M 168 16 L 976 16 L 976 336 L 168 336 L 168 16 Z Z" fill="none" stroke="#000000" stroke-miterlimit="10"/></g><g transform="translate(-54,-6) scale(1,1)"><g><path fill="none" stroke="none"/><text fill="#000000" font-family="Arial" font-size="13px" font-style="normal" font-weight="bold" stroke="none" text-decoration="none" x="451.848388671875" y="34">UC 4.1 - Visualizzazione singolo ordine</text></g></g><g transform="translate(-54,-6) scale(1,1)"><path d="M 80.40935031960227 153.68 C 80.40935031960227 148.886167936 84.29519264454773 145 89.088623046875 145 C 93.88205344920227 145 97.76789577414773 148.886167936 97.76789577414773 153.68 C 97.76789577414773 158.47383206400002 93.88205344920227 162.36 89.088623046875 162.36 C 84.29519264454773 162.36 80.40935031960227 158.47383206400002 80.40935031960227 153.68 Z" fill="#ffffff" stroke="none"/></g><g transform="translate(-54,-6) scale(1,1)"><path d="M 80.40935031960227 153.68 C 80.40935031960227 148.886167936 84.29519264454773 145 89.088623046875 145 C 93.88205344920227 145 97.76789577414773 148.886167936 97.76789577414773 153.68 C 97.76789577414773 158.47383206400002 93.88205344920227 162.36 89.088623046875 162.36 C 84.29519264454773 162.36 80.40935031960227 158.47383206400002 80.40935031960227 153.68 Z" fill="none" stroke="#000000" stroke-miterlimit="10"/></g><g transform="translate(-54,-6) scale(1,1)"><path d="M 89.088623046875 162.36 L 89.088623046875 179.64" fill="none" stroke="#000000" stroke-miterlimit="10"/></g><g transform="translate(-54,-6) scale(1,1)"><path d="M 79.89880486505682 168.84 L 98.27844122869318 168.84" fill="none" stroke="#000000" stroke-miterlimit="10"/></g><g transform="translate(-54,-6) scale(1,1)"><path d="M 89.088623046875 179.64 L 76.32498668323863 197" fill="none" stroke="#000000" stroke-miterlimit="10"/></g><g transform="translate(-54,-6) scale(1,1)"><path d="M 89.088623046875 179.64 L 101.85225941051137 197" fill="none" stroke="#000000" stroke-miterlimit="10"/></g><g transform="translate(-54,-6) scale(1,1)"><g><path fill="none" stroke="none"/><text fill="#000000" font-family="Arial" font-size="13px" font-style="normal" font-weight="bold" stroke="none" text-decoration="none" x="68.864990234375" y="216">Utente</text></g></g><g transform="translate(-54,-6) scale(1,1)"><path d="M 201 81 C 201 66.6405952 256.5166848 55 325 55 C 393.4833152 55 449 66.6405952 449 81 C 449 95.3594048 393.4833152 107 325 107 C 256.5166848 107 201 95.3594048 201 81 Z" fill="#C0C0C0" opacity="0.2" stroke="none"/></g><g transform="translate(-54,-6) scale(1,1)"><path d="M 194 74 C 194 59.6405952 249.5166848 48 318 48 C 386.4833152 48 442 59.6405952 442 74 C 442 88.3594048 386.4833152 100 318 100 C 249.5166848 100 194 88.3594048 194 74 Z" fill="#ffffff" stroke="none"/></g><g transform="translate(-54,-6) scale(1,1)"><path d="M 194 74 C 194 59.6405952 249.5166848 48 318 48 C 386.4833152 48 442 59.6405952 442 74 C 442 88.3594048 386.4833152 100 318 100 C 249.5166848 100 194 88.3594048 194 74 Z" fill="none" stroke="#000000" stroke-miterlimit="10"/></g><g transform="translate(-54,-6) scale(1,1)"><g><path fill="none" stroke="none"/><text fill="#000000" font-family="Arial" font-size="13px" font-style="normal" font-weight="bold" stroke="none" text-decoration="none" x="239.009765625" y="73">UC 4.1.1 - Visualizzazione</text><text fill="#000000" font-family="Arial" font-size="13px" font-style="normal" font-weight="bold" stroke="none" text-decoration="none" x="237.45458984375" y="86">codice articolo dell’ordine</text></g></g><g transform="translate(-54,-6) scale(1,1)"><path d="M 455 97 C 455 82.6405952 512.3075456 71 583 71 C 653.6924544 71 711 82.6405952 711 97 C 711 111.3594048 653.6924544 123 583 123 C 512.3075456 123 455 111.3594048 455 97 Z" fill="#C0C0C0" opacity="0.2" stroke="none"/></g><g transform="translate(-54,-6) scale(1,1)"><path d="M 448 90 C 448 75.6405952 505.3075456 64 576 64 C 646.6924544 64 704 75.6405952 704 90 C 704 104.3594048 646.6924544 116 576 116 C 505.3075456 116 448 104.3594048 448 90 Z" fill="#ffffff" stroke="none"/></g><g transform="translate(-54,-6) scale(1,1)"><path d="M 448 90 C 448 75.6405952 505.3075456 64 576 64 C 646.6924544 64 704 75.6405952 704 90 C 704 104.3594048 646.6924544 116 576 116 C 505.3075456 116 448 104.3594048 448 90 Z" fill="none" stroke="#000000" stroke-miterlimit="10"/></g><g transform="translate(-54,-6) scale(1,1)"><g><path fill="none" stroke="none"/><text fill="#000000" font-family="Arial" font-size="13px" font-style="normal" font-weight="bold" stroke="none" text-decoration="none" x="497.009765625" y="89">UC 4.1.2 - Visualizzazione</text><text fill="#000000" font-family="Arial" font-size="13px" font-style="normal" font-weight="bold" stroke="none" text-decoration="none" x="492.2109375" y="102">codice fornitore dell’ordine</text></g></g><g transform="translate(-54,-6) scale(1,1)"><path d="M 706 121 C 706 106.6405952 759.725824 95 826 95 C 892.274176 95 946 106.6405952 946 121 C 946 135.3594048 892.274176 147 826 147 C 759.725824 147 706 135.3594048 706 121 Z" fill="#C0C0C0" opacity="0.2" stroke="none"/></g><g transform="translate(-54,-6) scale(1,1)"><path d="M 699 114 C 699 99.6405952 752.725824 88 819 88 C 885.274176 88 939 99.6405952 939 114 C 939 128.3594048 885.274176 140 819 140 C 752.725824 140 699 128.3594048 699 114 Z" fill="#ffffff" stroke="none"/></g><g transform="translate(-54,-6) scale(1,1)"><path d="M 699 114 C 699 99.6405952 752.725824 88 819 88 C 885.274176 88 939 99.6405952 939 114 C 939 128.3594048 885.274176 140 819 140 C 752.725824 140 699 128.3594048 699 114 Z" fill="none" stroke="#000000" stroke-miterlimit="10"/></g><g transform="translate(-54,-6) scale(1,1)"><g><path fill="none" stroke="none"/><text fill="#000000" font-family="Arial" font-size="13px" font-style="normal" font-weight="bold" stroke="none" text-decoration="none" x="740.009765625" y="113">UC 4.1.3 - Visualizzazione</text><text fill="#000000" font-family="Arial" font-size="13px" font-style="normal" font-weight="bold" stroke="none" text-decoration="none" x="743.52001953125" y="126">data d’ordine dell’ordine</text></g></g><g transform="translate(-54,-6) scale(1,1)"><path d="M 682 185 C 682 170.6405952 746.4709888 159 826 159 C 905.5290112 159 970 170.6405952 970 185 C 970 199.3594048 905.5290112 211 826 211 C 746.4709888 211 682 199.3594048 682 185 Z" fill="#C0C0C0" opacity="0.2" stroke="none"/></g><g transform="translate(-54,-6) scale(1,1)"><path d="M 675 178 C 675 163.6405952 739.4709888 152 819 152 C 898.5290112 152 963 163.6405952 963 178 C 963 192.3594048 898.5290112 204 819 204 C 739.4709888 204 675 192.3594048 675 178 Z" fill="#ffffff" stroke="none"/></g><g transform="translate(-54,-6) scale(1,1)"><path d="M 675 178 C 675 163.6405952 739.4709888 152 819 152 C 898.5290112 152 963 163.6405952 963 178 C 963 192.3594048 898.5290112 204 819 204 C 739.4709888 204 675 192.3594048 675 178 Z" fill="none" stroke="#000000" stroke-miterlimit="10"/></g><g transform="translate(-54,-6) scale(1,1)"><g><path fill="none" stroke="none"/><text fill="#000000" font-family="Arial" font-size="13px" font-style="normal" font-weight="bold" stroke="none" text-decoration="none" x="724.8388671875" y="177">UC 4.1.4 - Visualizzazione data</text><text fill="#000000" font-family="Arial" font-size="13px" font-style="normal" font-weight="bold" stroke="none" text-decoration="none" x="723.286865234375" y="190">iniziale di copertura dell’ordine</text></g></g><g transform="translate(-54,-6) scale(1,1)"><path d="M 682 249 C 682 234.6405952 746.4709888 223 826 223 C 905.5290112 223 970 234.6405952 970 249 C 970 263.3594048 905.5290112 275 826 275 C 746.4709888 275 682 263.3594048 682 249 Z" fill="#C0C0C0" opacity="0.2" stroke="none"/></g><g transform="translate(-54,-6) scale(1,1)"><path d="M 675 242 C 675 227.6405952 739.4709888 216 819 216 C 898.5290112 216 963 227.6405952 963 242 C 963 256.3594048 898.5290112 268 819 268 C 739.4709888 268 675 256.3594048 675 242 Z" fill="#ffffff" stroke="none"/></g><g transform="translate(-54,-6) scale(1,1)"><path d="M 675 242 C 675 227.6405952 739.4709888 216 819 216 C 898.5290112 216 963 227.6405952 963 242 C 963 256.3594048 898.5290112 268 819 268 C 739.4709888 268 675 256.3594048 675 242 Z" fill="none" stroke="#000000" stroke-miterlimit="10"/></g><g transform="translate(-54,-6) scale(1,1)"><g><path fill="none" stroke="none"/><text fill="#000000" font-family="Arial" font-size="13px" font-style="normal" font-weight="bold" stroke="none" text-decoration="none" x="724.8388671875" y="241">UC 4.1.5 - Visualizzazione data</text><text fill="#000000" font-family="Arial" font-size="13px" font-style="normal" font-weight="bold" stroke="none" text-decoration="none" x="727.984130859375" y="254">finale di copertura dell’ordine</text></g></g><g transform="translate(-54,-6) scale(1,1)"><path d="M 455 281 C 455 266.6405952 514.0984064 255 587 255 C 659.9015936 255 719 266.6405952 719 281 C 719 295.3594048 659.9015936 307 587 307 C 514.0984064 307 455 295.3594048 455 281 Z" fill="#C0C0C0" opacity="0.2" stroke="none"/></g><g transform="translate(-54,-6) scale(1,1)"><path d="M 448 274 C 448 259.6405952 507.0984064 248 580 248 C 652.9015936 248 712 259.6405952 712 274 C 712 288.3594048 652.9015936 300 580 300 C 507.0984064 300 448 288.3594048 448 274 Z" fill="#ffffff" stroke="none"/></g><g transform="translate(-54,-6) scale(1,1)"><path d="M 448 274 C 448 259.6405952 507.0984064 248 580 248 C 652.9015936 248 712 259.6405952 712 274 C 712 288.3594048 652.9015936 300 580 300 C 507.0984064 300 448 288.3594048 448 274 Z" fill="none" stroke="#000000" stroke-miterlimit="10"/></g><g transform="translate(-54,-6) scale(1,1)"><g><path fill="none" stroke="none"/><text fill="#000000" font-family="Arial" font-size="13px" font-style="normal" font-weight="bold" stroke="none" text-decoration="none" x="501.009765625" y="273">UC 4.1.6 - Visualizzazione</text><text fill="#000000" font-family="Arial" font-size="13px" font-style="normal" font-weight="bold" stroke="none" text-decoration="none" x="492.60546875" y="286">quantità ordinata dell’ordine</text></g></g><g transform="translate(-54,-6) scale(1,1)"><path d="M 199 305 C 199 290.6405952 254.5166848 279 323 279 C 391.4833152 279 447 290.6405952 447 305 C 447 319.3594048 391.4833152 331 323 331 C 254.5166848 331 199 319.3594048 199 305 Z" fill="#C0C0C0" opacity="0.2" stroke="none"/></g><g transform="translate(-54,-6) scale(1,1)"><path d="M 192 298 C 192 283.6405952 247.5166848 272 316 272 C 384.4833152 272 440 283.6405952 440 298 C 440 312.3594048 384.4833152 324 316 324 C 247.5166848 324 192 312.3594048 192 298 Z" fill="#ffffff" stroke="none"/></g><g transform="translate(-54,-6) scale(1,1)"><path d="M 192 298 C 192 283.6405952 247.5166848 272 316 272 C 384.4833152 272 440 283.6405952 440 298 C 440 312.3594048 384.4833152 324 316 324 C 247.5166848 324 192 312.3594048 192 298 Z" fill="none" stroke="#000000" stroke-miterlimit="10"/></g><g transform="translate(-54,-6) scale(1,1)"><g><path fill="none" stroke="none"/><text fill="#000000" font-family="Arial" font-size="13px" font-style="normal" font-weight="bold" stroke="none" text-decoration="none" x="237.009765625" y="297">UC 4.1.7 - Visualizzazione</text><text fill="#000000" font-family="Arial" font-size="13px" font-style="normal" font-weight="bold" stroke="none" text-decoration="none" x="234.73095703125" y="310">prezzo parziale dell’ordine</text></g></g><g transform="translate(-54,-6) scale(1,1)"><path d="M 115 171 L 261 101" fill="none" stroke="#000000" stroke-miterlimit="10"/></g><g transform="translate(-54,-6) scale(1,1)"><path d="M 115 178 L 447 115" fill="none" stroke="#000000" stroke-miterlimit="10"/></g><g transform="translate(-54,-6) scale(1,1)"><path d="M 115 181 L 698 125" fill="none" stroke="#000000" stroke-miterlimit="10"/></g><g transform="translate(-54,-6) scale(1,1)"><path d="M 115 183 L 674 179" fill="none" stroke="#000000" stroke-miterlimit="10"/></g><g transform="translate(-54,-6) scale(1,1)"><path d="M 115 185 L 674 230" fill="none" stroke="#000000" stroke-miterlimit="10"/></g><g transform="translate(-54,-6) scale(1,1)"><path d="M 115 188 L 447 249" fill="none" stroke="#000000" stroke-miterlimit="10"/></g><g transform="translate(-54,-6) scale(1,1)"><path d="M 115 196 L 263 271" fill="none" stroke="#000000" stroke-miterlimit="10"/></g></g></svg>