<?xml version="1.0" encoding="UTF-8" standalone="no"?><svg xmlns="http://www.w3.org/2000/svg" xmlns:xlink="http://www.w3.org/1999/xlink" height="148" version="1.1" width="404"><defs/><g><g transform="translate(-94,-70) scale(1,1)"><rect fill="#C0C0C0" height="128" opacity="0.2" stroke="none" width="288" x="207" y="87"/></g><g transform="translate(-94,-70) scale(1,1)"><rect fill="#ffffff" height="128" stroke="none" width="288" x="200" y="80"/></g><g transform="translate(-94,-70) scale(1,1)"><path d="M 200 80 L 488 80 L 488 208 L 200 208 L 200 80 Z Z" fill="none" stroke="#000000" stroke-miterlimit="10"/></g><g transform="translate(-94,-70) scale(1,1)"><g><path fill="none" stroke="none"/><text fill="#000000" font-family="Arial" font-size="13px" font-style="normal" font-weight="bold" stroke="none" text-decoration="none" x="224.20703125" y="98">UC 4 - Visualizzazione lista degli ordini</text></g></g><g transform="translate(-94,-70) scale(1,1)"><path d="M 120.40935031960228 113.68 C 120.40935031960228 108.886167936 124.29519264454774 105 129.088623046875 105 C 133.88205344920226 105 137.76789577414772 108.886167936 137.76789577414772 113.68 C 137.76789577414772 118.473832064 133.88205344920226 122.36 129.088623046875 122.36 C 124.29519264454774 122.36 120.40935031960228 118.473832064 120.40935031960228 113.68 Z" fill="#ffffff" stroke="none"/></g><g transform="translate(-94,-70) scale(1,1)"><path d="M 120.40935031960228 113.68 C 120.40935031960228 108.886167936 124.29519264454774 105 129.088623046875 105 C 133.88205344920226 105 137.76789577414772 108.886167936 137.76789577414772 113.68 C 137.76789577414772 118.473832064 133.88205344920226 122.36 129.088623046875 122.36 C 124.29519264454774 122.36 120.40935031960228 118.473832064 120.40935031960228 113.68 Z" fill="none" stroke="#000000" stroke-miterlimit="10"/></g><g transform="translate(-94,-70) scale(1,1)"><path d="M 129.088623046875 122.36 L 129.088623046875 139.64" fill="none" stroke="#000000" stroke-miterlimit="10"/></g><g transform="translate(-94,-70) scale(1,1)"><path d="M 119.89880486505683 128.84 L 138.27844122869317 128.84" fill="none" stroke="#000000" stroke-miterlimit="10"/></g><g transform="translate(-94,-70) scale(1,1)"><path d="M 129.088623046875 139.64 L 116.32498668323865 157" fill="none" stroke="#000000" stroke-miterlimit="10"/></g><g transform="translate(-94,-70) scale(1,1)"><path d="M 129.088623046875 139.64 L 141.85225941051135 157" fill="none" stroke="#000000" stroke-miterlimit="10"/></g><g transform="translate(-94,-70) scale(1,1)"><g><path fill="none" stroke="none"/><text fill="#000000" font-family="Arial" font-size="13px" font-style="normal" font-weight="bold" stroke="none" text-decoration="none" x="108.864990234375" y="176">Utente</text></g></g><g transform="translate(-94,-70) scale(1,1)"><path d="M 239 150 C 239 135.6405952 289.1441024 124 351 124 C 412.8558976 124 463 135.6405952 463 150 C 463 164.3594048 412.8558976 176 351 176 C 289.1441024 176 239 164.3594048 239 150 Z" fill="#C0C0C0" opacity="0.2" stroke="none"/></g><g transform="translate(-94,-70) scale(1,1)"><path d="M 232 143 C 232 128.6405952 282.1441024 117 344 117 C 405.8558976 117 456 128.6405952 456 143 C 456 157.3594048 405.8558976 169 344 169 C 282.1441024 169 232 157.3594048 232 143 Z" fill="#ffffff" stroke="none"/></g><g transform="translate(-94,-70) scale(1,1)"><path d="M 232 143 C 232 128.6405952 282.1441024 117 344 117 C 405.8558976 117 456 128.6405952 456 143 C 456 157.3594048 405.8558976 169 344 169 C 282.1441024 169 232 157.3594048 232 143 Z" fill="none" stroke="#000000" stroke-miterlimit="10"/></g><g transform="translate(-94,-70) scale(1,1)"><g><path fill="none" stroke="none"/><text fill="#000000" font-family="Arial" font-size="13px" font-style="normal" font-weight="bold" stroke="none" text-decoration="none" x="270.4306640625" y="142">UC 4.1 - Visualizzazione</text><text fill="#000000" font-family="Arial" font-size="13px" font-style="normal" font-weight="bold" stroke="none" text-decoration="none" x="299.2236328125" y="155">singolo ordine</text></g></g><g transform="translate(-94,-70) scale(1,1)"><path d="M 154 143 L 232 143" fill="none" stroke="#000000" stroke-miterlimit="10"/></g></g></svg>