<?xml version="1.0" encoding="UTF-8" standalone="no"?><svg xmlns="http://www.w3.org/2000/svg" xmlns:xlink="http://www.w3.org/1999/xlink" height="404" version="1.1" width="700"><defs/><g><g transform="translate(-102,-22) scale(1,1)"><rect fill="#C0C0C0" height="384" opacity="0.2" stroke="none" width="600" x="199" y="39"/></g><g transform="translate(-102,-22) scale(1,1)"><rect fill="#ffffff" height="384" stroke="none" width="600" x="192" y="32"/></g><g transform="translate(-102,-22) scale(1,1)"><path d="M 192 32 L 792 32 L 792 416 L 192 416 L 192 32 Z Z" fill="none" stroke="#000000" stroke-miterlimit="10"/></g><g transform="translate(-102,-22) scale(1,1)"><g><path fill="none" stroke="none"/><text fill="#000000" font-family="Arial" font-size="13px" font-style="normal" font-weight="bold" stroke="none" text-decoration="none" x="428.444091796875" y="50">UC 5 - Filtraggio dati</text></g></g><g transform="translate(-102,-22) scale(1,1)"><path d="M 128.40935031960228 209.68 C 128.40935031960228 204.886167936 132.29519264454774 201 137.088623046875 201 C 141.88205344920226 201 145.76789577414772 204.886167936 145.76789577414772 209.68 C 145.76789577414772 214.47383206400002 141.88205344920226 218.36 137.088623046875 218.36 C 132.29519264454774 218.36 128.40935031960228 214.47383206400002 128.40935031960228 209.68 Z" fill="#ffffff" stroke="none"/></g><g transform="translate(-102,-22) scale(1,1)"><path d="M 128.40935031960228 209.68 C 128.40935031960228 204.886167936 132.29519264454774 201 137.088623046875 201 C 141.88205344920226 201 145.76789577414772 204.886167936 145.76789577414772 209.68 C 145.76789577414772 214.47383206400002 141.88205344920226 218.36 137.088623046875 218.36 C 132.29519264454774 218.36 128.40935031960228 214.47383206400002 128.40935031960228 209.68 Z" fill="none" stroke="#000000" stroke-miterlimit="10"/></g><g transform="translate(-102,-22) scale(1,1)"><path d="M 137.088623046875 218.36 L 137.088623046875 235.64" fill="none" stroke="#000000" stroke-miterlimit="10"/></g><g transform="translate(-102,-22) scale(1,1)"><path d="M 127.89880486505683 224.84 L 146.27844122869317 224.84" fill="none" stroke="#000000" stroke-miterlimit="10"/></g><g transform="translate(-102,-22) scale(1,1)"><path d="M 137.088623046875 235.64 L 124.32498668323865 253" fill="none" stroke="#000000" stroke-miterlimit="10"/></g><g transform="translate(-102,-22) scale(1,1)"><path d="M 137.088623046875 235.64 L 149.85225941051135 253" fill="none" stroke="#000000" stroke-miterlimit="10"/></g><g transform="translate(-102,-22) scale(1,1)"><g><path fill="none" stroke="none"/><text fill="#000000" font-family="Arial" font-size="13px" font-style="normal" font-weight="bold" stroke="none" text-decoration="none" x="116.864990234375" y="272">Utente</text></g></g><g transform="translate(-102,-22) scale(1,1)"><path d="M 207 89 C 207 74.6405952 249.9806592 63 303 63 C 356.0193408 63 399 74.6405952 399 89 C 399 103.3594048 356.0193408 115 303 115 C 249.9806592 115 207 103.3594048 207 89 Z" fill="#C0C0C0" opacity="0.2" stroke="none"/></g><g transform="translate(-102,-22) scale(1,1)"><path d="M 200 82 C 200 67.6405952 242.9806592 56 296 56 C 349.0193408 56 392 67.6405952 392 82 C 392 96.3594048 349.0193408 108 296 108 C 242.9806592 108 200 96.3594048 200 82 Z" fill="#ffffff" stroke="none"/></g><g transform="translate(-102,-22) scale(1,1)"><path d="M 200 82 C 200 67.6405952 242.9806592 56 296 56 C 349.0193408 56 392 67.6405952 392 82 C 392 96.3594048 349.0193408 108 296 108 C 242.9806592 108 200 96.3594048 200 82 Z" fill="none" stroke="#000000" stroke-miterlimit="10"/></g><g transform="translate(-102,-22) scale(1,1)"><g><path fill="none" stroke="none"/><text fill="#000000" font-family="Arial" font-size="13px" font-style="normal" font-weight="bold" stroke="none" text-decoration="none" x="240.385009765625" y="81">UC 5.1 - Filtraggio</text><text fill="#000000" font-family="Arial" font-size="13px" font-style="normal" font-weight="bold" stroke="none" text-decoration="none" x="234.2119140625" y="94">per ricerca generica</text></g></g><g transform="translate(-102,-22) scale(1,1)"><path d="M 412 97 C 412 82.6405952 454.9806592 71 508 71 C 561.0193408 71 604 82.6405952 604 97 C 604 111.3594048 561.0193408 123 508 123 C 454.9806592 123 412 111.3594048 412 97 Z" fill="#C0C0C0" opacity="0.2" stroke="none"/></g><g transform="translate(-102,-22) scale(1,1)"><path d="M 405 90 C 405 75.6405952 447.9806592 64 501 64 C 554.0193408 64 597 75.6405952 597 90 C 597 104.3594048 554.0193408 116 501 116 C 447.9806592 116 405 104.3594048 405 90 Z" fill="#ffffff" stroke="none"/></g><g transform="translate(-102,-22) scale(1,1)"><path d="M 405 90 C 405 75.6405952 447.9806592 64 501 64 C 554.0193408 64 597 75.6405952 597 90 C 597 104.3594048 554.0193408 116 501 116 C 447.9806592 116 405 104.3594048 405 90 Z" fill="none" stroke="#000000" stroke-miterlimit="10"/></g><g transform="translate(-102,-22) scale(1,1)"><g><path fill="none" stroke="none"/><text fill="#000000" font-family="Arial" font-size="13px" font-style="normal" font-weight="bold" stroke="none" text-decoration="none" x="445.385009765625" y="89">UC 5.2 - Filtraggio</text><text fill="#000000" font-family="Arial" font-size="13px" font-style="normal" font-weight="bold" stroke="none" text-decoration="none" x="443.20458984375" y="102">per codice articolo</text></g></g><g transform="translate(-102,-22) scale(1,1)"><path d="M 572 137 C 572 122.6405952 614.7568016 111 667.5 111 C 720.2431984 111 763 122.6405952 763 137 C 763 151.3594048 720.2431984 163 667.5 163 C 614.7568016 163 572 151.3594048 572 137 Z" fill="#C0C0C0" opacity="0.2" stroke="none"/></g><g transform="translate(-102,-22) scale(1,1)"><path d="M 565 130 C 565 115.6405952 607.7568016 104 660.5 104 C 713.2431984 104 756 115.6405952 756 130 C 756 144.3594048 713.2431984 156 660.5 156 C 607.7568016 156 565 144.3594048 565 130 Z" fill="#ffffff" stroke="none"/></g><g transform="translate(-102,-22) scale(1,1)"><path d="M 565 130 C 565 115.6405952 607.7568016 104 660.5 104 C 713.2431984 104 756 115.6405952 756 130 C 756 144.3594048 713.2431984 156 660.5 156 C 607.7568016 156 565 144.3594048 565 130 Z" fill="none" stroke="#000000" stroke-miterlimit="10"/></g><g transform="translate(-102,-22) scale(1,1)"><g><path fill="none" stroke="none"/><text fill="#000000" font-family="Arial" font-size="13px" font-style="normal" font-weight="bold" stroke="none" text-decoration="none" x="604.885009765625" y="129">UC 5.3 - Filtraggio</text><text fill="#000000" font-family="Arial" font-size="13px" font-style="normal" font-weight="bold" stroke="none" text-decoration="none" x="599.4609375" y="142">per codice fornitore</text></g></g><g transform="translate(-102,-22) scale(1,1)"><path d="M 578 201 C 578 186.6405952 618.0705104 175 667.5 175 C 716.9294896 175 757 186.6405952 757 201 C 757 215.3594048 716.9294896 227 667.5 227 C 618.0705104 227 578 215.3594048 578 201 Z" fill="#C0C0C0" opacity="0.2" stroke="none"/></g><g transform="translate(-102,-22) scale(1,1)"><path d="M 571 194 C 571 179.6405952 611.0705104 168 660.5 168 C 709.9294896 168 750 179.6405952 750 194 C 750 208.3594048 709.9294896 220 660.5 220 C 611.0705104 220 571 208.3594048 571 194 Z" fill="#ffffff" stroke="none"/></g><g transform="translate(-102,-22) scale(1,1)"><path d="M 571 194 C 571 179.6405952 611.0705104 168 660.5 168 C 709.9294896 168 750 179.6405952 750 194 C 750 208.3594048 709.9294896 220 660.5 220 C 611.0705104 220 571 208.3594048 571 194 Z" fill="none" stroke="#000000" stroke-miterlimit="10"/></g><g transform="translate(-102,-22) scale(1,1)"><g><path fill="none" stroke="none"/><text fill="#000000" font-family="Arial" font-size="13px" font-style="normal" font-weight="bold" stroke="none" text-decoration="none" x="604.885009765625" y="193">UC 5.4 - Filtraggio</text><text fill="#000000" font-family="Arial" font-size="13px" font-style="normal" font-weight="bold" stroke="none" text-decoration="none" x="607.77001953125" y="206">per data d’ordine</text></g></g><g transform="translate(-102,-22) scale(1,1)"><path d="M 549 265 C 549 250.6405952 602.0542512 239 667.5 239 C 732.9457488 239 786 250.6405952 786 265 C 786 279.3594048 732.9457488 291 667.5 291 C 602.0542512 291 549 279.3594048 549 265 Z" fill="#C0C0C0" opacity="0.2" stroke="none"/></g><g transform="translate(-102,-22) scale(1,1)"><path d="M 542 258 C 542 243.6405952 595.0542512 232 660.5 232 C 725.9457488 232 779 243.6405952 779 258 C 779 272.3594048 725.9457488 284 660.5 284 C 595.0542512 284 542 272.3594048 542 258 Z" fill="#ffffff" stroke="none"/></g><g transform="translate(-102,-22) scale(1,1)"><path d="M 542 258 C 542 243.6405952 595.0542512 232 660.5 232 C 725.9457488 232 779 243.6405952 779 258 C 779 272.3594048 725.9457488 284 660.5 284 C 595.0542512 284 542 272.3594048 542 258 Z" fill="none" stroke="#000000" stroke-miterlimit="10"/></g><g transform="translate(-102,-22) scale(1,1)"><g><path fill="none" stroke="none"/><text fill="#000000" font-family="Arial" font-size="13px" font-style="normal" font-weight="bold" stroke="none" text-decoration="none" x="592.964111328125" y="257">UC 5.5 - Filtraggio per</text><text fill="#000000" font-family="Arial" font-size="13px" font-style="normal" font-weight="bold" stroke="none" text-decoration="none" x="584.286865234375" y="270">data iniziale di copertura</text></g></g><g transform="translate(-102,-22) scale(1,1)"><path d="M 543 329 C 543 314.6405952 592.6963872 303 654 303 C 715.3036128 303 765 314.6405952 765 329 C 765 343.3594048 715.3036128 355 654 355 C 592.6963872 355 543 343.3594048 543 329 Z" fill="#C0C0C0" opacity="0.2" stroke="none"/></g><g transform="translate(-102,-22) scale(1,1)"><path d="M 536 322 C 536 307.6405952 585.6963872 296 647 296 C 708.3036128 296 758 307.6405952 758 322 C 758 336.3594048 708.3036128 348 647 348 C 585.6963872 348 536 336.3594048 536 322 Z" fill="#ffffff" stroke="none"/></g><g transform="translate(-102,-22) scale(1,1)"><path d="M 536 322 C 536 307.6405952 585.6963872 296 647 296 C 708.3036128 296 758 307.6405952 758 322 C 758 336.3594048 708.3036128 348 647 348 C 585.6963872 348 536 336.3594048 536 322 Z" fill="none" stroke="#000000" stroke-miterlimit="10"/></g><g transform="translate(-102,-22) scale(1,1)"><g><path fill="none" stroke="none"/><text fill="#000000" font-family="Arial" font-size="13px" font-style="normal" font-weight="bold" stroke="none" text-decoration="none" x="579.464111328125" y="321">UC 5.6 - Filtraggio per</text><text fill="#000000" font-family="Arial" font-size="13px" font-style="normal" font-weight="bold" stroke="none" text-decoration="none" x="575.484130859375" y="334">data finale di copertura</text></g></g><g transform="translate(-102,-22) scale(1,1)"><path d="M 406 377 C 406 362.6405952 451.6669504 351 508 351 C 564.3330496 351 610 362.6405952 610 377 C 610 391.3594048 564.3330496 403 508 403 C 451.6669504 403 406 391.3594048 406 377 Z" fill="#C0C0C0" opacity="0.2" stroke="none"/></g><g transform="translate(-102,-22) scale(1,1)"><path d="M 399 370 C 399 355.6405952 444.6669504 344 501 344 C 557.3330496 344 603 355.6405952 603 370 C 603 384.3594048 557.3330496 396 501 396 C 444.6669504 396 399 384.3594048 399 370 Z" fill="#ffffff" stroke="none"/></g><g transform="translate(-102,-22) scale(1,1)"><path d="M 399 370 C 399 355.6405952 444.6669504 344 501 344 C 557.3330496 344 603 355.6405952 603 370 C 603 384.3594048 557.3330496 396 501 396 C 444.6669504 396 399 384.3594048 399 370 Z" fill="none" stroke="#000000" stroke-miterlimit="10"/></g><g transform="translate(-102,-22) scale(1,1)"><g><path fill="none" stroke="none"/><text fill="#000000" font-family="Arial" font-size="13px" font-style="normal" font-weight="bold" stroke="none" text-decoration="none" x="445.385009765625" y="369">UC 5.7 - Filtraggio</text><text fill="#000000" font-family="Arial" font-size="13px" font-style="normal" font-weight="bold" stroke="none" text-decoration="none" x="436.35546875" y="382">per quantità ordinata</text></g></g><g transform="translate(-102,-22) scale(1,1)"><path d="M 210 385 C 210 370.6405952 251.8613712 359 303.5 359 C 355.1386288 359 397 370.6405952 397 385 C 397 399.3594048 355.1386288 411 303.5 411 C 251.8613712 411 210 399.3594048 210 385 Z" fill="#C0C0C0" opacity="0.2" stroke="none"/></g><g transform="translate(-102,-22) scale(1,1)"><path d="M 203 378 C 203 363.6405952 244.8613712 352 296.5 352 C 348.1386288 352 390 363.6405952 390 378 C 390 392.3594048 348.1386288 404 296.5 404 C 244.8613712 404 203 392.3594048 203 378 Z" fill="#ffffff" stroke="none"/></g><g transform="translate(-102,-22) scale(1,1)"><path d="M 203 378 C 203 363.6405952 244.8613712 352 296.5 352 C 348.1386288 352 390 363.6405952 390 378 C 390 392.3594048 348.1386288 404 296.5 404 C 244.8613712 404 203 392.3594048 203 378 Z" fill="none" stroke="#000000" stroke-miterlimit="10"/></g><g transform="translate(-102,-22) scale(1,1)"><g><path fill="none" stroke="none"/><text fill="#000000" font-family="Arial" font-size="13px" font-style="normal" font-weight="bold" stroke="none" text-decoration="none" x="240.885009765625" y="377">UC 5.8 - Filtraggio</text><text fill="#000000" font-family="Arial" font-size="13px" font-style="normal" font-weight="bold" stroke="none" text-decoration="none" x="237.98095703125" y="390">per prezzo parziale</text></g></g><g transform="translate(-102,-22) scale(1,1)"><path d="M 163 213 L 269 109" fill="none" stroke="#000000" stroke-miterlimit="10"/></g><g transform="translate(-102,-22) scale(1,1)"><path d="M 163 228 L 435 117" fill="none" stroke="#000000" stroke-miterlimit="10"/></g><g transform="translate(-102,-22) scale(1,1)"><path d="M 163 234 L 564 150" fill="none" stroke="#000000" stroke-miterlimit="10"/></g><g transform="translate(-102,-22) scale(1,1)"><path d="M 163 237 L 570 202" fill="none" stroke="#000000" stroke-miterlimit="10"/></g><g transform="translate(-102,-22) scale(1,1)"><path d="M 163 240 L 541 254" fill="none" stroke="#000000" stroke-miterlimit="10"/></g><g transform="translate(-102,-22) scale(1,1)"><path d="M 163 243 L 535 304" fill="none" stroke="#000000" stroke-miterlimit="10"/></g><g transform="translate(-102,-22) scale(1,1)"><path d="M 163 248 L 426 343" fill="none" stroke="#000000" stroke-miterlimit="10"/></g><g transform="translate(-102,-22) scale(1,1)"><path d="M 163 262 L 265 351" fill="none" stroke="#000000" stroke-miterlimit="10"/></g></g></svg>