<?xml version="1.0" encoding="UTF-8" standalone="no"?><svg xmlns="http://www.w3.org/2000/svg" xmlns:xlink="http://www.w3.org/1999/xlink" height="364" version="1.1" width="748"><defs/><g><g transform="translate(-86,-110) scale(1,1)"><rect fill="#C0C0C0" height="344" opacity="0.2" stroke="none" width="648" x="183" y="127"/></g><g transform="translate(-86,-110) scale(1,1)"><rect fill="#ffffff" height="344" stroke="none" width="648" x="176" y="120"/></g><g transform="translate(-86,-110) scale(1,1)"><path d="M 176 120 L 824 120 L 824 464 L 176 464 L 176 120 Z Z" fill="none" stroke="#000000" stroke-miterlimit="10"/></g><g transform="translate(-86,-110) scale(1,1)"><g><path fill="none" stroke="none"/><text fill="#000000" font-family="Arial" font-size="13px" font-style="normal" font-weight="bold" stroke="none" text-decoration="none" x="473.70166015625" y="138">Winform</text></g></g><g transform="translate(-86,-110) scale(1,1)"><path d="M 112.40935031960228 273.68 C 112.40935031960228 268.886167936 116.29519264454774 265 121.088623046875 265 C 125.88205344920226 265 129.76789577414772 268.886167936 129.76789577414772 273.68 C 129.76789577414772 278.473832064 125.88205344920226 282.36 121.088623046875 282.36 C 116.29519264454774 282.36 112.40935031960228 278.473832064 112.40935031960228 273.68 Z" fill="#ffffff" stroke="none"/></g><g transform="translate(-86,-110) scale(1,1)"><path d="M 112.40935031960228 273.68 C 112.40935031960228 268.886167936 116.29519264454774 265 121.088623046875 265 C 125.88205344920226 265 129.76789577414772 268.886167936 129.76789577414772 273.68 C 129.76789577414772 278.473832064 125.88205344920226 282.36 121.088623046875 282.36 C 116.29519264454774 282.36 112.40935031960228 278.473832064 112.40935031960228 273.68 Z" fill="none" stroke="#000000" stroke-miterlimit="10"/></g><g transform="translate(-86,-110) scale(1,1)"><path d="M 121.088623046875 282.36 L 121.088623046875 299.64" fill="none" stroke="#000000" stroke-miterlimit="10"/></g><g transform="translate(-86,-110) scale(1,1)"><path d="M 111.89880486505683 288.84 L 130.27844122869317 288.84" fill="none" stroke="#000000" stroke-miterlimit="10"/></g><g transform="translate(-86,-110) scale(1,1)"><path d="M 121.088623046875 299.64 L 108.32498668323865 317" fill="none" stroke="#000000" stroke-miterlimit="10"/></g><g transform="translate(-86,-110) scale(1,1)"><path d="M 121.088623046875 299.64 L 133.85225941051135 317" fill="none" stroke="#000000" stroke-miterlimit="10"/></g><g transform="translate(-86,-110) scale(1,1)"><g><path fill="none" stroke="none"/><text fill="#000000" font-family="Arial" font-size="13px" font-style="normal" font-weight="bold" stroke="none" text-decoration="none" x="100.864990234375" y="336">Utente</text></g></g><g transform="translate(-86,-110) scale(1,1)"><path d="M 198 177 C 198 162.6405952 244.5623808 151 302 151 C 359.4376192 151 406 162.6405952 406 177 C 406 191.3594048 359.4376192 203 302 203 C 244.5623808 203 198 191.3594048 198 177 Z" fill="#C0C0C0" opacity="0.2" stroke="none"/></g><g transform="translate(-86,-110) scale(1,1)"><path d="M 191 170 C 191 155.6405952 237.5623808 144 295 144 C 352.4376192 144 399 155.6405952 399 170 C 399 184.3594048 352.4376192 196 295 196 C 237.5623808 196 191 184.3594048 191 170 Z" fill="#ffffff" stroke="none"/></g><g transform="translate(-86,-110) scale(1,1)"><path d="M 191 170 C 191 155.6405952 237.5623808 144 295 144 C 352.4376192 144 399 155.6405952 399 170 C 399 184.3594048 352.4376192 196 295 196 C 237.5623808 196 191 184.3594048 191 170 Z" fill="none" stroke="#000000" stroke-miterlimit="10"/></g><g transform="translate(-86,-110) scale(1,1)"><g><path fill="none" stroke="none"/><text fill="#000000" font-family="Arial" font-size="13px" font-style="normal" font-weight="bold" stroke="none" text-decoration="none" x="228.54638671875" y="169">UC 6.1 - Ordinamento</text><text fill="#000000" font-family="Arial" font-size="13px" font-style="normal" font-weight="bold" stroke="none" text-decoration="none" x="237.20458984375" y="182">per codice articolo</text></g></g><g transform="translate(-86,-110) scale(1,1)"><path d="M 410 201 C 410 186.6405952 456.5623808 175 514 175 C 571.4376192 175 618 186.6405952 618 201 C 618 215.3594048 571.4376192 227 514 227 C 456.5623808 227 410 215.3594048 410 201 Z" fill="#C0C0C0" opacity="0.2" stroke="none"/></g><g transform="translate(-86,-110) scale(1,1)"><path d="M 403 194 C 403 179.6405952 449.5623808 168 507 168 C 564.4376192 168 611 179.6405952 611 194 C 611 208.3594048 564.4376192 220 507 220 C 449.5623808 220 403 208.3594048 403 194 Z" fill="#ffffff" stroke="none"/></g><g transform="translate(-86,-110) scale(1,1)"><path d="M 403 194 C 403 179.6405952 449.5623808 168 507 168 C 564.4376192 168 611 179.6405952 611 194 C 611 208.3594048 564.4376192 220 507 220 C 449.5623808 220 403 208.3594048 403 194 Z" fill="none" stroke="#000000" stroke-miterlimit="10"/></g><g transform="translate(-86,-110) scale(1,1)"><g><path fill="none" stroke="none"/><text fill="#000000" font-family="Arial" font-size="13px" font-style="normal" font-weight="bold" stroke="none" text-decoration="none" x="440.54638671875" y="193">UC 6.2 - Ordinamento</text><text fill="#000000" font-family="Arial" font-size="13px" font-style="normal" font-weight="bold" stroke="none" text-decoration="none" x="445.9609375" y="206">per codice fornitore</text></g></g><g transform="translate(-86,-110) scale(1,1)"><path d="M 590 241 C 590 226.6405952 636.5623808 215 694 215 C 751.4376192 215 798 226.6405952 798 241 C 798 255.3594048 751.4376192 267 694 267 C 636.5623808 267 590 255.3594048 590 241 Z" fill="#C0C0C0" opacity="0.2" stroke="none"/></g><g transform="translate(-86,-110) scale(1,1)"><path d="M 583 234 C 583 219.6405952 629.5623808 208 687 208 C 744.4376192 208 791 219.6405952 791 234 C 791 248.3594048 744.4376192 260 687 260 C 629.5623808 260 583 248.3594048 583 234 Z" fill="#ffffff" stroke="none"/></g><g transform="translate(-86,-110) scale(1,1)"><path d="M 583 234 C 583 219.6405952 629.5623808 208 687 208 C 744.4376192 208 791 219.6405952 791 234 C 791 248.3594048 744.4376192 260 687 260 C 629.5623808 260 583 248.3594048 583 234 Z" fill="none" stroke="#000000" stroke-miterlimit="10"/></g><g transform="translate(-86,-110) scale(1,1)"><g><path fill="none" stroke="none"/><text fill="#000000" font-family="Arial" font-size="13px" font-style="normal" font-weight="bold" stroke="none" text-decoration="none" x="620.54638671875" y="233">UC 6.3 - Ordinamento</text><text fill="#000000" font-family="Arial" font-size="13px" font-style="normal" font-weight="bold" stroke="none" text-decoration="none" x="634.5302734375" y="246">per data d'ordine</text></g></g><g transform="translate(-86,-110) scale(1,1)"><path d="M 574 311 C 574 296.6405952 627.725824 285 694 285 C 760.274176 285 814 296.6405952 814 311 C 814 325.3594048 760.274176 337 694 337 C 627.725824 337 574 325.3594048 574 311 Z" fill="#C0C0C0" opacity="0.2" stroke="none"/></g><g transform="translate(-86,-110) scale(1,1)"><path d="M 567 304 C 567 289.6405952 620.725824 278 687 278 C 753.274176 278 807 289.6405952 807 304 C 807 318.3594048 753.274176 330 687 330 C 620.725824 330 567 318.3594048 567 304 Z" fill="#ffffff" stroke="none"/></g><g transform="translate(-86,-110) scale(1,1)"><path d="M 567 304 C 567 289.6405952 620.725824 278 687 278 C 753.274176 278 807 289.6405952 807 304 C 807 318.3594048 753.274176 330 687 330 C 620.725824 330 567 318.3594048 567 304 Z" fill="none" stroke="#000000" stroke-miterlimit="10"/></g><g transform="translate(-86,-110) scale(1,1)"><g><path fill="none" stroke="none"/><text fill="#000000" font-family="Arial" font-size="13px" font-style="normal" font-weight="bold" stroke="none" text-decoration="none" x="608.62548828125" y="303">UC 6.4 - Ordinamento per</text><text fill="#000000" font-family="Arial" font-size="13px" font-style="normal" font-weight="bold" stroke="none" text-decoration="none" x="610.786865234375" y="316">data iniziale di copertura</text></g></g><g transform="translate(-86,-110) scale(1,1)"><path d="M 574 377 C 574 362.6405952 627.725824 351 694 351 C 760.274176 351 814 362.6405952 814 377 C 814 391.3594048 760.274176 403 694 403 C 627.725824 403 574 391.3594048 574 377 Z" fill="#C0C0C0" opacity="0.2" stroke="none"/></g><g transform="translate(-86,-110) scale(1,1)"><path d="M 567 370 C 567 355.6405952 620.725824 344 687 344 C 753.274176 344 807 355.6405952 807 370 C 807 384.3594048 753.274176 396 687 396 C 620.725824 396 567 384.3594048 567 370 Z" fill="#ffffff" stroke="none"/></g><g transform="translate(-86,-110) scale(1,1)"><path d="M 567 370 C 567 355.6405952 620.725824 344 687 344 C 753.274176 344 807 355.6405952 807 370 C 807 384.3594048 753.274176 396 687 396 C 620.725824 396 567 384.3594048 567 370 Z" fill="none" stroke="#000000" stroke-miterlimit="10"/></g><g transform="translate(-86,-110) scale(1,1)"><g><path fill="none" stroke="none"/><text fill="#000000" font-family="Arial" font-size="13px" font-style="normal" font-weight="bold" stroke="none" text-decoration="none" x="608.62548828125" y="369">UC 6.5 - Ordinamento per</text><text fill="#000000" font-family="Arial" font-size="13px" font-style="normal" font-weight="bold" stroke="none" text-decoration="none" x="615.484130859375" y="382">data finale di copertura</text></g></g><g transform="translate(-86,-110) scale(1,1)"><path d="M 410 417 C 410 402.6405952 456.5623808 391 514 391 C 571.4376192 391 618 402.6405952 618 417 C 618 431.3594048 571.4376192 443 514 443 C 456.5623808 443 410 431.3594048 410 417 Z" fill="#C0C0C0" opacity="0.2" stroke="none"/></g><g transform="translate(-86,-110) scale(1,1)"><path d="M 403 410 C 403 395.6405952 449.5623808 384 507 384 C 564.4376192 384 611 395.6405952 611 410 C 611 424.3594048 564.4376192 436 507 436 C 449.5623808 436 403 424.3594048 403 410 Z" fill="#ffffff" stroke="none"/></g><g transform="translate(-86,-110) scale(1,1)"><path d="M 403 410 C 403 395.6405952 449.5623808 384 507 384 C 564.4376192 384 611 395.6405952 611 410 C 611 424.3594048 564.4376192 436 507 436 C 449.5623808 436 403 424.3594048 403 410 Z" fill="none" stroke="#000000" stroke-miterlimit="10"/></g><g transform="translate(-86,-110) scale(1,1)"><g><path fill="none" stroke="none"/><text fill="#000000" font-family="Arial" font-size="13px" font-style="normal" font-weight="bold" stroke="none" text-decoration="none" x="440.54638671875" y="409">UC 6.6 - Ordinamento</text><text fill="#000000" font-family="Arial" font-size="13px" font-style="normal" font-weight="bold" stroke="none" text-decoration="none" x="442.35546875" y="422">per quantità ordinata</text></g></g><g transform="translate(-86,-110) scale(1,1)"><path d="M 198 433 C 198 418.6405952 244.5623808 407 302 407 C 359.4376192 407 406 418.6405952 406 433 C 406 447.3594048 359.4376192 459 302 459 C 244.5623808 459 198 447.3594048 198 433 Z" fill="#C0C0C0" opacity="0.2" stroke="none"/></g><g transform="translate(-86,-110) scale(1,1)"><path d="M 191 426 C 191 411.6405952 237.5623808 400 295 400 C 352.4376192 400 399 411.6405952 399 426 C 399 440.3594048 352.4376192 452 295 452 C 237.5623808 452 191 440.3594048 191 426 Z" fill="#ffffff" stroke="none"/></g><g transform="translate(-86,-110) scale(1,1)"><path d="M 191 426 C 191 411.6405952 237.5623808 400 295 400 C 352.4376192 400 399 411.6405952 399 426 C 399 440.3594048 352.4376192 452 295 452 C 237.5623808 452 191 440.3594048 191 426 Z" fill="none" stroke="#000000" stroke-miterlimit="10"/></g><g transform="translate(-86,-110) scale(1,1)"><g><path fill="none" stroke="none"/><text fill="#000000" font-family="Arial" font-size="13px" font-style="normal" font-weight="bold" stroke="none" text-decoration="none" x="228.54638671875" y="425">UC 6.7 - Ordinamento</text><text fill="#000000" font-family="Arial" font-size="13px" font-style="normal" font-weight="bold" stroke="none" text-decoration="none" x="236.48095703125" y="438">per prezzo parziale</text></g></g><g transform="translate(-86,-110) scale(1,1)"><path d="M 198 311 C 198 296.6405952 244.5623808 285 302 285 C 359.4376192 285 406 296.6405952 406 311 C 406 325.3594048 359.4376192 337 302 337 C 244.5623808 337 198 325.3594048 198 311 Z" fill="#C0C0C0" opacity="0.2" stroke="none"/></g><g transform="translate(-86,-110) scale(1,1)"><path d="M 191 304 C 191 289.6405952 237.5623808 278 295 278 C 352.4376192 278 399 289.6405952 399 304 C 399 318.3594048 352.4376192 330 295 330 C 237.5623808 330 191 318.3594048 191 304 Z" fill="#ffffff" stroke="none"/></g><g transform="translate(-86,-110) scale(1,1)"><path d="M 191 304 C 191 289.6405952 237.5623808 278 295 278 C 352.4376192 278 399 289.6405952 399 304 C 399 318.3594048 352.4376192 330 295 330 C 237.5623808 330 191 318.3594048 191 304 Z" fill="none" stroke="#000000" stroke-miterlimit="10"/></g><g transform="translate(-86,-110) scale(1,1)"><g><path fill="none" stroke="none"/><text fill="#000000" font-family="Arial" font-size="13px" font-style="normal" font-weight="bold" stroke="none" text-decoration="none" x="233.96728515625" y="303">UC 6 - Ordinamento</text><text fill="#000000" font-family="Arial" font-size="13px" font-style="normal" font-weight="bold" stroke="none" text-decoration="none" x="228.543212890625" y="316">della lista degli ordini</text></g></g><g transform="translate(-86,-110) scale(1,1)"><path d="M 295 399 L 295 331" fill="none" stroke="#000000" stroke-miterlimit="10"/></g><g transform="translate(-86,-110) scale(1,1)"><path d="M 303.419035512032 351.3253497152483 L 295 331 L 286.580964487968 351.3253497152483" fill="#FFFFFF" stroke="none"/></g><g transform="translate(-86,-110) scale(1,1)"><path d="M 303.419035512032 351.3253497152483 L 295 331 L 286.580964487968 351.3253497152483 L 303.419035512032 351.3253497152483" fill="none" stroke="#000000" stroke-miterlimit="10"/></g><g transform="translate(-86,-110) scale(1,1)"><path d="M 453 383 L 349 331" fill="none" stroke="#000000" stroke-miterlimit="10"/></g><g transform="translate(-86,-110) scale(1,1)"><path d="M 370.9446525938781 332.55955844199497 L 349 331 L 363.41443830992284 347.61998700990557" fill="#FFFFFF" stroke="none"/></g><g transform="translate(-86,-110) scale(1,1)"><path d="M 370.9446525938781 332.55955844199497 L 349 331 L 363.41443830992284 347.61998700990557 L 370.9446525938781 332.55955844199497" fill="none" stroke="#000000" stroke-miterlimit="10"/></g><g transform="translate(-86,-110) scale(1,1)"><path d="M 566 350 L 400 322" fill="none" stroke="#000000" stroke-miterlimit="10"/></g><g transform="translate(-86,-110) scale(1,1)"><path d="M 421.44253486843206 317.07885192093596 L 400 322 L 418.6419389892267 333.6823846333679" fill="#FFFFFF" stroke="none"/></g><g transform="translate(-86,-110) scale(1,1)"><path d="M 421.44253486843206 317.07885192093596 L 400 322 L 418.6419389892267 333.6823846333679 L 421.44253486843206 317.07885192093596" fill="none" stroke="#000000" stroke-miterlimit="10"/></g><g transform="translate(-86,-110) scale(1,1)"><path d="M 567 304 L 399 304" fill="none" stroke="#000000" stroke-miterlimit="10"/></g><g transform="translate(-86,-110) scale(1,1)"><path d="M 419.3253497152483 295.580964487968 L 399 304 L 419.3253497152483 312.419035512032" fill="#FFFFFF" stroke="none"/></g><g transform="translate(-86,-110) scale(1,1)"><path d="M 419.3253497152483 295.580964487968 L 399 304 L 419.3253497152483 312.419035512032 L 419.3253497152483 295.580964487968" fill="none" stroke="#000000" stroke-miterlimit="10"/></g><g transform="translate(-86,-110) scale(1,1)"><path d="M 582 253 L 400 285" fill="none" stroke="#000000" stroke-miterlimit="10"/></g><g transform="translate(-86,-110) scale(1,1)"><path d="M 418.56037433049363 273.18845883417606 L 400 285 L 421.47618740507096 289.7721456958346" fill="#FFFFFF" stroke="none"/></g><g transform="translate(-86,-110) scale(1,1)"><path d="M 418.56037433049363 273.18845883417606 L 400 285 L 421.47618740507096 289.7721456958346 L 418.56037433049363 273.18845883417606" fill="none" stroke="#000000" stroke-miterlimit="10"/></g><g transform="translate(-86,-110) scale(1,1)"><path d="M 455 221 L 347 277" fill="none" stroke="#000000" stroke-miterlimit="10"/></g><g transform="translate(-86,-110) scale(1,1)"><path d="M 361.1684947586514 260.1698557262848 L 347 277 L 368.9193478673404 275.1179295787565" fill="#FFFFFF" stroke="none"/></g><g transform="translate(-86,-110) scale(1,1)"><path d="M 361.1684947586514 260.1698557262848 L 347 277 L 368.9193478673404 275.1179295787565 L 361.1684947586514 260.1698557262848" fill="none" stroke="#000000" stroke-miterlimit="10"/></g><g transform="translate(-86,-110) scale(1,1)"><path d="M 295 197 L 295 277" fill="none" stroke="#000000" stroke-miterlimit="10"/></g><g transform="translate(-86,-110) scale(1,1)"><path d="M 286.580964487968 256.6746502847517 L 295 277 L 303.419035512032 256.6746502847517" fill="#FFFFFF" stroke="none"/></g><g transform="translate(-86,-110) scale(1,1)"><path d="M 286.580964487968 256.6746502847517 L 295 277 L 303.419035512032 256.6746502847517 L 286.580964487968 256.6746502847517" fill="none" stroke="#000000" stroke-miterlimit="10"/></g><g transform="translate(-86,-110) scale(1,1)"><path d="M 146 303 L 191 303" fill="none" stroke="#000000" stroke-miterlimit="10"/></g></g></svg>