<?xml version="1.0" encoding="UTF-8" standalone="no"?><svg xmlns="http://www.w3.org/2000/svg" xmlns:xlink="http://www.w3.org/1999/xlink" height="324" version="1.1" width="708"><defs/><g><g transform="translate(-46,-134) scale(1,1)"><rect fill="#C0C0C0" height="304" opacity="0.2" stroke="none" width="608" x="143" y="151"/></g><g transform="translate(-46,-134) scale(1,1)"><rect fill="#ffffff" height="304" stroke="none" width="608" x="136" y="144"/></g><g transform="translate(-46,-134) scale(1,1)"><path d="M 136 144 L 744 144 L 744 448 L 136 448 L 136 144 Z Z" fill="none" stroke="#000000" stroke-miterlimit="10"/></g><g transform="translate(-46,-134) scale(1,1)"><g><path fill="none" stroke="none"/><text fill="#000000" font-family="Arial" font-size="13px" font-style="normal" font-weight="bold" stroke="none" text-decoration="none" x="413.70166015625" y="162">Winform</text></g></g><g transform="translate(-46,-134) scale(1,1)"><path d="M 72.40935031960227 273.68 C 72.40935031960227 268.886167936 76.29519264454773 265 81.088623046875 265 C 85.88205344920227 265 89.76789577414773 268.886167936 89.76789577414773 273.68 C 89.76789577414773 278.473832064 85.88205344920227 282.36 81.088623046875 282.36 C 76.29519264454773 282.36 72.40935031960227 278.473832064 72.40935031960227 273.68 Z" fill="#ffffff" stroke="none"/></g><g transform="translate(-46,-134) scale(1,1)"><path d="M 72.40935031960227 273.68 C 72.40935031960227 268.886167936 76.29519264454773 265 81.088623046875 265 C 85.88205344920227 265 89.76789577414773 268.886167936 89.76789577414773 273.68 C 89.76789577414773 278.473832064 85.88205344920227 282.36 81.088623046875 282.36 C 76.29519264454773 282.36 72.40935031960227 278.473832064 72.40935031960227 273.68 Z" fill="none" stroke="#000000" stroke-miterlimit="10"/></g><g transform="translate(-46,-134) scale(1,1)"><path d="M 81.088623046875 282.36 L 81.088623046875 299.64" fill="none" stroke="#000000" stroke-miterlimit="10"/></g><g transform="translate(-46,-134) scale(1,1)"><path d="M 71.89880486505682 288.84 L 90.27844122869318 288.84" fill="none" stroke="#000000" stroke-miterlimit="10"/></g><g transform="translate(-46,-134) scale(1,1)"><path d="M 81.088623046875 299.64 L 68.32498668323863 317" fill="none" stroke="#000000" stroke-miterlimit="10"/></g><g transform="translate(-46,-134) scale(1,1)"><path d="M 81.088623046875 299.64 L 93.85225941051137 317" fill="none" stroke="#000000" stroke-miterlimit="10"/></g><g transform="translate(-46,-134) scale(1,1)"><g><path fill="none" stroke="none"/><text fill="#000000" font-family="Arial" font-size="13px" font-style="normal" font-weight="bold" stroke="none" text-decoration="none" x="60.864990234375" y="336">Utente</text></g></g><g transform="translate(-46,-134) scale(1,1)"><path d="M 153 204 C 153 189.6405952 195.9806592 178 249 178 C 302.0193408 178 345 189.6405952 345 204 C 345 218.3594048 302.0193408 230 249 230 C 195.9806592 230 153 218.3594048 153 204 Z" fill="#C0C0C0" opacity="0.2" stroke="none"/></g><g transform="translate(-46,-134) scale(1,1)"><path d="M 146 197 C 146 182.6405952 188.9806592 171 242 171 C 295.0193408 171 338 182.6405952 338 197 C 338 211.3594048 295.0193408 223 242 223 C 188.9806592 223 146 211.3594048 146 197 Z" fill="#ffffff" stroke="none"/></g><g transform="translate(-46,-134) scale(1,1)"><path d="M 146 197 C 146 182.6405952 188.9806592 171 242 171 C 295.0193408 171 338 182.6405952 338 197 C 338 211.3594048 295.0193408 223 242 223 C 188.9806592 223 146 211.3594048 146 197 Z" fill="none" stroke="#000000" stroke-miterlimit="10"/></g><g transform="translate(-46,-134) scale(1,1)"><g><path fill="none" stroke="none"/><text fill="#000000" font-family="Arial" font-size="13px" font-style="normal" font-weight="bold" stroke="none" text-decoration="none" x="184.57275390625" y="196">UC 1 - Inserimento</text><text fill="#000000" font-family="Arial" font-size="13px" font-style="normal" font-weight="bold" stroke="none" text-decoration="none" x="230.444091796875" y="209">dati</text></g></g><g transform="translate(-46,-134) scale(1,1)"><path d="M 350 233 C 350 218.6405952 391.1897984 207 442 207 C 492.8102016 207 534 218.6405952 534 233 C 534 247.3594048 492.8102016 259 442 259 C 391.1897984 259 350 247.3594048 350 233 Z" fill="#C0C0C0" opacity="0.2" stroke="none"/></g><g transform="translate(-46,-134) scale(1,1)"><path d="M 343 226 C 343 211.6405952 384.1897984 200 435 200 C 485.8102016 200 527 211.6405952 527 226 C 527 240.3594048 485.8102016 252 435 252 C 384.1897984 252 343 240.3594048 343 226 Z" fill="#ffffff" stroke="none"/></g><g transform="translate(-46,-134) scale(1,1)"><path d="M 343 226 C 343 211.6405952 384.1897984 200 435 200 C 485.8102016 200 527 211.6405952 527 226 C 527 240.3594048 485.8102016 252 435 252 C 384.1897984 252 343 240.3594048 343 226 Z" fill="none" stroke="#000000" stroke-miterlimit="10"/></g><g transform="translate(-46,-134) scale(1,1)"><g><path fill="none" stroke="none"/><text fill="#000000" font-family="Arial" font-size="13px" font-style="normal" font-weight="bold" stroke="none" text-decoration="none" x="375.766845703125" y="225">UC 2 - Inizio analisi</text><text fill="#000000" font-family="Arial" font-size="13px" font-style="normal" font-weight="bold" stroke="none" text-decoration="none" x="383" y="238">di ottimizzazione</text></g></g><g transform="translate(-46,-134) scale(1,1)"><path d="M 518 273 C 518 258.6405952 566.3532416 247 626 247 C 685.6467584 247 734 258.6405952 734 273 C 734 287.3594048 685.6467584 299 626 299 C 566.3532416 299 518 287.3594048 518 273 Z" fill="#C0C0C0" opacity="0.2" stroke="none"/></g><g transform="translate(-46,-134) scale(1,1)"><path d="M 511 266 C 511 251.6405952 559.3532416 240 619 240 C 678.6467584 240 727 251.6405952 727 266 C 727 280.3594048 678.6467584 292 619 292 C 559.3532416 292 511 280.3594048 511 266 Z" fill="#ffffff" stroke="none"/></g><g transform="translate(-46,-134) scale(1,1)"><path d="M 511 266 C 511 251.6405952 559.3532416 240 619 240 C 678.6467584 240 727 251.6405952 727 266 C 727 280.3594048 678.6467584 292 619 292 C 559.3532416 292 511 280.3594048 511 266 Z" fill="none" stroke="#000000" stroke-miterlimit="10"/></g><g transform="translate(-46,-134) scale(1,1)"><g><path fill="none" stroke="none"/><text fill="#000000" font-family="Arial" font-size="13px" font-style="normal" font-weight="bold" stroke="none" text-decoration="none" x="550.8515625" y="265">UC 3 - Visualizzazione</text><text fill="#000000" font-family="Arial" font-size="13px" font-style="normal" font-weight="bold" stroke="none" text-decoration="none" x="595.523193359375" y="278">risultati</text></g></g><g transform="translate(-46,-134) scale(1,1)"><path d="M 518 345 C 518 330.6405952 566.3532416 319 626 319 C 685.6467584 319 734 330.6405952 734 345 C 734 359.3594048 685.6467584 371 626 371 C 566.3532416 371 518 359.3594048 518 345 Z" fill="#C0C0C0" opacity="0.2" stroke="none"/></g><g transform="translate(-46,-134) scale(1,1)"><path d="M 511 338 C 511 323.6405952 559.3532416 312 619 312 C 678.6467584 312 727 323.6405952 727 338 C 727 352.3594048 678.6467584 364 619 364 C 559.3532416 364 511 352.3594048 511 338 Z" fill="#ffffff" stroke="none"/></g><g transform="translate(-46,-134) scale(1,1)"><path d="M 511 338 C 511 323.6405952 559.3532416 312 619 312 C 678.6467584 312 727 323.6405952 727 338 C 727 352.3594048 678.6467584 364 619 364 C 559.3532416 364 511 352.3594048 511 338 Z" fill="none" stroke="#000000" stroke-miterlimit="10"/></g><g transform="translate(-46,-134) scale(1,1)"><g><path fill="none" stroke="none"/><text fill="#000000" font-family="Arial" font-size="13px" font-style="normal" font-weight="bold" stroke="none" text-decoration="none" x="550.8515625" y="337">UC 4 - Visualizzazione</text><text fill="#000000" font-family="Arial" font-size="13px" font-style="normal" font-weight="bold" stroke="none" text-decoration="none" x="569.161376953125" y="350">lista degli ordini</text></g></g><g transform="translate(-46,-134) scale(1,1)"><path d="M 362 377 C 362 362.6405952 397.81721600000003 351 442 351 C 486.18278399999997 351 522 362.6405952 522 377 C 522 391.3594048 486.18278399999997 403 442 403 C 397.81721600000003 403 362 391.3594048 362 377 Z" fill="#C0C0C0" opacity="0.2" stroke="none"/></g><g transform="translate(-46,-134) scale(1,1)"><path d="M 355 370 C 355 355.6405952 390.81721600000003 344 435 344 C 479.18278399999997 344 515 355.6405952 515 370 C 515 384.3594048 479.18278399999997 396 435 396 C 390.81721600000003 396 355 384.3594048 355 370 Z" fill="#ffffff" stroke="none"/></g><g transform="translate(-46,-134) scale(1,1)"><path d="M 355 370 C 355 355.6405952 390.81721600000003 344 435 344 C 479.18278399999997 344 515 355.6405952 515 370 C 515 384.3594048 479.18278399999997 396 435 396 C 390.81721600000003 396 355 384.3594048 355 370 Z" fill="none" stroke="#000000" stroke-miterlimit="10"/></g><g transform="translate(-46,-134) scale(1,1)"><g><path fill="none" stroke="none"/><text fill="#000000" font-family="Arial" font-size="13px" font-style="normal" font-weight="bold" stroke="none" text-decoration="none" x="384.805908203125" y="369">UC 5 - Filtraggio</text><text fill="#000000" font-family="Arial" font-size="13px" font-style="normal" font-weight="bold" stroke="none" text-decoration="none" x="423.444091796875" y="382">dati</text></g></g><g transform="translate(-46,-134) scale(1,1)"><path d="M 153 409 C 153 394.6405952 195.9806592 383 249 383 C 302.0193408 383 345 394.6405952 345 409 C 345 423.3594048 302.0193408 435 249 435 C 195.9806592 435 153 423.3594048 153 409 Z" fill="#C0C0C0" opacity="0.2" stroke="none"/></g><g transform="translate(-46,-134) scale(1,1)"><path d="M 146 402 C 146 387.6405952 188.9806592 376 242 376 C 295.0193408 376 338 387.6405952 338 402 C 338 416.3594048 295.0193408 428 242 428 C 188.9806592 428 146 416.3594048 146 402 Z" fill="#ffffff" stroke="none"/></g><g transform="translate(-46,-134) scale(1,1)"><path d="M 146 402 C 146 387.6405952 188.9806592 376 242 376 C 295.0193408 376 338 387.6405952 338 402 C 338 416.3594048 295.0193408 428 242 428 C 188.9806592 428 146 416.3594048 146 402 Z" fill="none" stroke="#000000" stroke-miterlimit="10"/></g><g transform="translate(-46,-134) scale(1,1)"><g><path fill="none" stroke="none"/><text fill="#000000" font-family="Arial" font-size="13px" font-style="normal" font-weight="bold" stroke="none" text-decoration="none" x="180.96728515625" y="401">UC 6 - Ordinamento</text><text fill="#000000" font-family="Arial" font-size="13px" font-style="normal" font-weight="bold" stroke="none" text-decoration="none" x="184.1982421875" y="414">elementi della lista</text></g></g><g transform="translate(-46,-134) scale(1,1)"><path d="M 107 286 L 201 224" fill="none" stroke="#000000" stroke-miterlimit="10"/></g><g transform="translate(-46,-134) scale(1,1)"><path d="M 107 301 L 510 273" fill="none" stroke="#000000" stroke-miterlimit="10"/></g><g transform="translate(-46,-134) scale(1,1)"><path d="M 107 308 L 354 355" fill="none" stroke="#000000" stroke-miterlimit="10"/></g><g transform="translate(-46,-134) scale(1,1)"><path d="M 107 297 L 342 246" fill="none" stroke="#000000" stroke-miterlimit="10"/></g><g transform="translate(-46,-134) scale(1,1)"><path d="M 107 305 L 510 331" fill="none" stroke="#000000" stroke-miterlimit="10"/></g><g transform="translate(-46,-134) scale(1,1)"><path d="M 107 319 L 198 375" fill="none" stroke="#000000" stroke-miterlimit="10"/></g></g></svg>