<?xml version="1.0" encoding="UTF-8"?>
<svg id="svg8" width="3167.9pt" height="652.14pt" version="1.1" viewBox="0 0 1117.6 230.06" xmlns="http://www.w3.org/2000/svg" xmlns:cc="http://creativecommons.org/ns#" xmlns:dc="http://purl.org/dc/elements/1.1/" xmlns:rdf="http://www.w3.org/1999/02/22-rdf-syntax-ns#">
 <metadata id="metadata5">
  <rdf:RDF>
   <cc:Work rdf:about="">
    <dc:format>image/svg+xml</dc:format>
    <dc:type rdf:resource="http://purl.org/dc/dcmitype/StillImage"/>
    <dc:title/>
   </cc:Work>
  </rdf:RDF>
 </metadata>
 <g id="layer1" transform="translate(-29.528 259.44)">
  <g id="g2453">
   <path id="path178" d="m939.77-212.52c12.957 0 23.463-10.506 23.463-23.463 0-12.957-10.506-23.463-23.463-23.463-12.957 0-23.463 10.506-23.463 23.463 0 12.957 10.506 23.463 23.463 23.463" fill="#e7642e"/>
   <path id="path180" d="m940.37-150.8-30.445 79.233c-1.4296 3.7069-3.6155 9.3088-4.3219 12.849-1.0887 5.419 2.1362 5.9177 6.3333 4.1308 10.705-4.5713 23.912-23.546 29.505-31.126l5.1199 3.0171c-11.91 21.044-33.894 53.334-60.981 53.309-11.761-0.0081-18.942-8.5109-19.573-19.316-0.58169-9.9654 2.7345-18.925 5.7515-26.779l28.849-75.035c1.4214-3.7152 3.6071-9.3171 4.3136-12.858 1.0887-5.419-2.1362-5.9177-6.325-4.1308-10.713 4.5796-23.92 23.546-29.522 31.126l-5.1115-3.017c11.919-21.044 33.894-53.326 60.981-53.309 12.201 8e-3 17.919 4.9702 19.748 13.847 1.4129 6.9068 6e-3 15.617-4.322 28.059" fill="#e7642e"/>
   <path id="path182" d="m637.91-150.87c-6.2086-2.6596-13.157-4.7043-24.352-4.7043-24.303 0-37.127 20.438-37.127 42.795v79.947h-38.141v-156.18h38.141v17.595c8.2366-13.298 23.97-19.424 35.531-20.272 12.168-0.8809 18.9 1.3964 25.948 4.0975v36.72"/>
   <path id="path184" d="m29.528-256.39h39.413v223.56h-39.413z"/>
   <path id="path186" d="m358.54-155.92h-41.815v123.08h-38.124v-123.08h-19.806v-33.096h19.806v-12.625c0-32.971 23.131-54.706 60.424-54.706h19.515v33.104h-10.614c-25.499 0-31.201 9.7992-31.201 30.902v3.3246h41.815v33.096"/>
   <path id="path188" d="m514.89-111.52c0 45.987-28.3 81.502-76.581 81.502-48.256 0-76.581-35.606-76.581-81.502 0-46.452 28.234-80.022 76.581-80.022 48.19 0 76.581 33.719 76.581 80.022zm-37.725 0.24102c0-24.984-10.422-47.566-38.856-47.566-28.699 0-38.856 22.674-38.856 47.566 0 25.632 9.3171 48.564 38.856 48.564 29.539 0 38.856-22.923 38.856-48.564"/>
   <path id="path190" d="m242.77-32.834h-38.141v-85.774c0-22.275-7.5634-37.742-30.977-37.609-19.881 0.10838-33.204 13.398-33.204 39.005v84.377h-38.141v-156.18h38.141v11.628c11.112-9.367 27.461-14.304 41.881-14.304 37.152 0 60.441 24.901 60.441 61.637v97.219"/>
   <path id="path192" d="m691.93-32.834v-93.038c0-17.013 2.7926-30.262 19.59-30.262 9.8407 0 15.958 5.6767 15.958 24.469v98.831h38.141v-93.038c0-17.013 2.7843-30.262 19.59-30.262 9.8407 0 15.958 5.6767 15.958 24.469v98.831h38.141v-113.23c0-11.869-2.4602-22.482-11.91-32.223-8.594-8.8434-18.875-13.398-34.775-13.398-12.916 0-25.524 3.7817-35.806 12.775-10.339-10.107-20.247-12.775-33.138-12.775-11.254 0-24.203 4.7126-31.75 13.34v-10.672h-38.141v156.19h38.141"/>
   <path id="path194" d="m946.71-32.834 76.149-12.7-62.818-4.6128 74.553-11.727-62.809-5.419 74.562-10.921-62.818-6.2253 74.553-10.115-62.876-7.447 74.62-8.9098-74.204-8.86 63.167-7.4803-74.204-10.065 63.167-6.2751-74.204-10.88 63.167-5.4606-74.204-11.686 63.167-4.6544-76.141-12.741h85.998l28.99 44.732 28.982-44.732h48.979l-54.066 77.587 58.678 78.593h-49.486l-33.088-48.14-33.104 48.14h-84.71" fill="#3d62a9"/>
  </g>
 </g>
</svg>
